<svg xmlns="http://www.w3.org/2000/svg" width="191.219" height="215.896" viewBox="0 0 191.219 215.896"><defs><style>.a{fill:#e0e0e0;}.b{fill:#ebebeb;}.c{fill:#f5f5f5;}.d{fill:#e8505b;}.e{opacity:0.8;}.f{fill:#fff;}.g{opacity:0.3;}.h{fill:#ffbe9d;}.i{fill:#eb996e;}.j{opacity:0.6;}.k{fill:#263238;}.l{fill:#455a64;}.m{fill:#fafafa;}</style></defs><g transform="translate(-35.3 -16.259)"><g transform="translate(35.3 16.259)"><g transform="translate(8.56 119.824)"><path class="a" d="M86.6,314.458a8.724,8.724,0,0,0-3.543-1.8,19.007,19.007,0,0,1-8.709-29.143l-.189-.978c-.429-4.544-5.918-7.8-10.111-6.006s-5.618,8.022-2.62,11.467c-4.922.406-8.178,6.02-7.482,10.909s4.271,8.907,8.257,11.827a39.089,39.089,0,0,0,22.7,7.5,3.121,3.121,0,0,0,1.61-.291C87.674,317.272,87.526,315.431,86.6,314.458Z" transform="translate(-53.857 -276.029)"/></g><g transform="translate(161.832 124.185)"><path class="a" d="M402.773,299.656a5.946,5.946,0,0,0,.143-6.14,4.639,4.639,0,0,0-5.628-1.845,4.119,4.119,0,0,0-6.993-4.354c-1.31,2.025-.618,4.742.507,6.873s2.671,4.138,3.04,6.518a9.509,9.509,0,0,1-2.011,6.914,28.317,28.317,0,0,1-5.323,5.1l-.369.355a13.237,13.237,0,0,0,10.586-.909c1.808-1,3.483-2.657,3.6-4.719.065-1.153-.364-2.306-.189-3.45C400.4,302.3,401.879,301.109,402.773,299.656Z" transform="translate(-386.14 -285.483)"/></g><g transform="translate(47.954 199.024)"><path class="a" d="M170.576,462.472a6.668,6.668,0,0,1-4.65-2.477c-.673-.941-1-2.085-1.587-3.081a3.136,3.136,0,0,0-2.754-1.785c-1.785.175-2.984,2.639-4.723,2.205a2.537,2.537,0,0,1-1.55-2.565,27.951,27.951,0,0,0,.175-3.22c-.378-3-4.23-4.479-7.108-3.538s-7.247,4.41-9.119,6.781c1.97,3.28,6.02,4.553,9.728,5.48q9.341,2.346,18.843,3.971a13.887,13.887,0,0,0,4.488.263,4.9,4.9,0,0,0,3.653-2.362A19.32,19.32,0,0,1,170.576,462.472Z" transform="translate(-139.26 -447.729)"/></g><g transform="translate(116.941 173.88)"><path class="a" d="M322.562,409.977c-.457-2.565-3.017-4.825-5.554-4.234,2.1-1.734,2.117-5.222.452-7.38a8.814,8.814,0,0,0-7.279-3.012,23.394,23.394,0,0,0-7.874,2.053c1.241-1.582-.577-4.041-2.579-4.175s-3.8,1.144-5.42,2.325-3.5,2.38-5.489,2.071l1.863.743c4.451.673,8.939,1.716,12.791,4.041s7.025,6.116,7.694,10.568-1.679,9.433-5.9,10.992a17.9,17.9,0,0,0,14.987-6.767C321.856,415.144,323.019,412.538,322.562,409.977Z" transform="translate(-288.82 -393.219)"/></g><g transform="translate(0 115.535)"><g transform="translate(4.322)"><path class="a" d="M44.79,275.319a76.949,76.949,0,0,1,0-8.589,39.049,39.049,0,0,1,.12,4.294A37.725,37.725,0,0,1,44.79,275.319Z" transform="translate(-44.67 -266.73)"/></g><g transform="translate(0 4.174)"><path class="a" d="M44.184,275.9a41.742,41.742,0,0,1-4.442.12,41.742,41.742,0,0,1-4.442-.12,41.743,41.743,0,0,1,4.442-.12A40.317,40.317,0,0,1,44.184,275.9Z" transform="translate(-35.3 -275.78)"/></g></g><g transform="translate(171.357 159.697)"><g transform="translate(4.322)"><path class="a" d="M416.28,371.059a76.965,76.965,0,0,1,0-8.589,76.945,76.945,0,0,1,0,8.589Z" transform="translate(-416.16 -362.47)"/></g><g transform="translate(0 4.17)"><path class="a" d="M415.674,371.63a82.3,82.3,0,0,1-8.884,0,82.28,82.28,0,0,1,8.884,0Z" transform="translate(-406.79 -371.51)"/></g></g><g transform="translate(145.291 12.256)"><g transform="translate(4.322)"><path class="a" d="M359.77,51.419a39.053,39.053,0,0,1-.12-4.294,38.984,38.984,0,0,1,.12-4.294,39.035,39.035,0,0,1,.12,4.294A39.053,39.053,0,0,1,359.77,51.419Z" transform="translate(-359.65 -42.83)"/></g><g transform="translate(0 4.17)"><path class="a" d="M359.164,51.99a82.319,82.319,0,0,1-8.884,0,82.324,82.324,0,0,1,8.884,0Z" transform="translate(-350.28 -51.87)"/></g></g><g transform="translate(6.762 81.138)"><circle class="a" cx="2.625" cy="2.625" r="2.625"/></g><g transform="translate(108.897 192.945)"><path class="a" d="M276.629,437.175A2.625,2.625,0,1,1,274,434.55,2.626,2.626,0,0,1,276.629,437.175Z" transform="translate(-271.38 -434.55)"/></g><g transform="translate(133.326 143.331)"><path class="a" d="M329.589,329.615a2.625,2.625,0,1,1-2.625-2.625A2.626,2.626,0,0,1,329.589,329.615Z" transform="translate(-324.34 -326.99)"/></g><g transform="translate(55.32 12.598)"><path class="a" d="M160.479,46.195a2.625,2.625,0,1,1-2.625-2.625A2.626,2.626,0,0,1,160.479,46.195Z" transform="translate(-155.23 -43.57)"/></g><g transform="translate(70.381 169.222)"><circle class="a" cx="1.315" cy="1.315" r="1.315"/></g><g transform="translate(38.705 162.672)"><path class="a" d="M121.839,370.235a1.315,1.315,0,1,1-1.315-1.315A1.314,1.314,0,0,1,121.839,370.235Z" transform="translate(-119.21 -368.92)"/></g><g transform="translate(71.068 16.532)"><path class="a" d="M192,53.415a1.315,1.315,0,1,1-1.315-1.315A1.314,1.314,0,0,1,192,53.415Z" transform="translate(-189.37 -52.1)"/></g><g transform="translate(128.893 87.563)"><path class="a" d="M317.359,207.4a1.315,1.315,0,1,1-1.315-1.315A1.314,1.314,0,0,1,317.359,207.4Z" transform="translate(-314.73 -206.09)"/></g><g transform="translate(4.445 13.581)"><path class="b" d="M45.949,46.071S43.024,47.579,47.12,53.7A85.084,85.084,0,0,0,53.9,62.782s.77,1.444-.475,1.827-4.1.272-4.488,1.9c-.4,1.684.959,3.072,3.5,4.128s8.017,3.575,8.51,3.8,1.024.876.217,1.273-7.034,1.8-6.195,4.719,8.4,4.7,9.221,4.908,1.052.521,1.038.959-2.15.715-3.907,1.185-3.709,1.328-3.081,2.971,5.337,4.691,15.877,4.479l4.876-.42,2.159-4.419c4.045-9.737,2.924-15.236,1.624-16.417s-2.809.323-3.889,1.785-2.117,3.353-2.528,3.206-.618-.475-.517-1.315,1.2-8.524-1.2-10.374-5.987,3.436-6.656,4.045-1.075-.134-1.107-.664-.378-6.564-.434-9.313-.853-4.516-2.569-4.76c-1.651-.235-2.588,2.468-3.4,3.483s-1.877-.221-1.877-.221a85.25,85.25,0,0,0-5.978-9.627c-4.2-6.047-6.721-3.81-6.721-3.81" transform="translate(-44.937 -45.703)"/><g transform="translate(4.665 5.857)"><path class="a" d="M84.825,102.465C81.753,98.009,76.425,90,71.817,83.152S63.035,70.107,59.986,65.637l-3.616-5.291q-.637-.934-.983-1.439c-.106-.161-.194-.286-.254-.378s-.083-.129-.083-.129.032.042.092.125.152.212.263.369l1.006,1.421c.872,1.236,2.122,3.035,3.658,5.263,3.072,4.456,7.265,10.642,11.868,17.491s9.922,14.867,12.971,19.336" transform="translate(-55.05 -58.4)"/></g><g transform="translate(7.991 21.123)"><path class="a" d="M62.26,91.5a1.572,1.572,0,0,1,.351.055c.221.042.544.115.941.208.793.189,1.877.475,3.072.816,1.176.341,2.237.646,3.049.881q.554.152.927.263a1.378,1.378,0,0,1,.337.111,1.749,1.749,0,0,1-.351-.051c-.221-.046-.544-.115-.941-.217-.789-.2-1.873-.5-3.063-.84s-2.242-.632-3.054-.858c-.369-.1-.678-.189-.927-.258A1.667,1.667,0,0,1,62.26,91.5Z" transform="translate(-62.26 -91.495)"/></g><g transform="translate(16.955 13.025)"><path class="a" d="M81.7,84.023c-.042-.009.457-2.274,1.107-5.06s1.213-5.037,1.255-5.023S83.6,76.214,82.952,79,81.739,84.033,81.7,84.023Z" transform="translate(-81.695 -73.94)"/></g><g transform="translate(23.562 25.788)"><path class="a" d="M96.019,109.77a1.806,1.806,0,0,1,.161-.323q.194-.346.484-.858c.406-.724.964-1.725,1.536-2.851s1.061-2.163,1.407-2.915c.161-.355.3-.655.411-.89a1.792,1.792,0,0,1,.166-.323,1.946,1.946,0,0,1-.111.346c-.083.217-.208.53-.369.913-.323.766-.793,1.813-1.37,2.943s-1.149,2.126-1.578,2.837c-.217.355-.4.641-.526.83A1.93,1.93,0,0,1,96.019,109.77Z" transform="translate(-96.018 -101.61)"/></g><g transform="translate(15.057 33.794)"><path class="a" d="M77.58,119.111a1.407,1.407,0,0,1,.332-.032l.909-.037c.766-.023,1.827-.046,2.994-.06s2.228-.018,3-.014l.909.014a1.078,1.078,0,0,1,.332.028,1.405,1.405,0,0,1-.332.032l-.909.037c-.766.023-1.827.046-2.994.06s-2.228.018-2.994.014l-.909-.014A1.6,1.6,0,0,1,77.58,119.111Z" transform="translate(-77.58 -118.966)"/></g><g transform="translate(19.67 43.995)"><path class="a" d="M87.58,141.334A2.466,2.466,0,0,1,88,141.3c.3-.014.692-.028,1.162-.051.982-.037,2.339-.074,3.838-.106s2.855-.055,3.838-.06H98a2.856,2.856,0,0,1,.429.018,2.471,2.471,0,0,1-.424.037c-.3.014-.692.028-1.162.051-.982.037-2.339.074-3.838.106s-2.855.055-3.838.06H88.009A2.237,2.237,0,0,1,87.58,141.334Z" transform="translate(-87.58 -141.08)"/></g><g transform="translate(30.265 33.459)"><path class="a" d="M110.549,128.729a2.647,2.647,0,0,1,.194-.415c.148-.286.341-.66.572-1.107.484-.936,1.144-2.228,1.831-3.676s1.282-2.777,1.707-3.741c.2-.461.374-.849.5-1.139a2.85,2.85,0,0,1,.2-.411,2.687,2.687,0,0,1-.143.434c-.1.277-.258.673-.457,1.162-.4.978-.973,2.311-1.665,3.764s-1.37,2.74-1.877,3.662c-.254.461-.466.83-.613,1.084A2.68,2.68,0,0,1,110.549,128.729Z" transform="translate(-110.548 -118.24)"/></g></g><g transform="translate(158.703 65.149)"><path class="c" d="M384.5,194.161c-5.2-4.534-5.692-11.965-4.76-18.5a7.141,7.141,0,0,1,.784-3.16,2.242,2.242,0,0,1,2.841-.863c.77.47,1.024,1.453,1.393,2.283a6.428,6.428,0,0,0,2.3,2.726,2.449,2.449,0,0,0,2.223.447c1-.42,1.25-1.711,1.361-2.8q.311-3.044.618-6.089a10.147,10.147,0,0,1,.678-3.2,3.391,3.391,0,0,1,2.366-2.053,2.057,2.057,0,0,1,2.385,1.647,10.346,10.346,0,0,1-.115,1.356,1.148,1.148,0,0,0,.553,1.149,1.328,1.328,0,0,0,1.25-.369A14.521,14.521,0,0,0,401.4,163.1a20.057,20.057,0,0,1,2.86-3.787,5.928,5.928,0,0,1,4.23-1.808,3.541,3.541,0,0,1,3.354,2.8c.231,1.578-.835,3.035-1.942,4.174a24.373,24.373,0,0,1-5.577,4.276,2.029,2.029,0,0,0-.946.816c-.314.7.3,1.495.987,1.808a12.366,12.366,0,0,0,2.509.558,2.457,2.457,0,0,1,1.951,1.5c.327,1.162-.729,2.228-1.73,2.892a20.884,20.884,0,0,1-6.541,2.892,7.072,7.072,0,0,0-2.408.867,2.032,2.032,0,0,0-.895,2.237,2.061,2.061,0,0,0,2.136,1.1,14.422,14.422,0,0,0,2.486-.655c1.555-.4,3.478-.092,4.294,1.305a3.456,3.456,0,0,1,.037,3.086,8.027,8.027,0,0,1-1.942,2.514,21.05,21.05,0,0,1-9.613,5.318,14.424,14.424,0,0,1-10.153-.826" transform="translate(-379.355 -157.499)"/><g transform="translate(7.276 1.14)"><path class="a" d="M395.13,191.566a97.569,97.569,0,0,1,5-10.083c.489-.867.973-1.73,1.448-2.574s.95-1.684,1.462-2.472a48.962,48.962,0,0,1,3.21-4.373c1.089-1.342,2.168-2.574,3.187-3.722s2-2.191,2.924-3.109a38.755,38.755,0,0,1,4.7-4c.59-.429,1.056-.743,1.379-.955.152-.1.277-.18.364-.235a.622.622,0,0,1,.129-.074.963.963,0,0,1-.115.092c-.088.065-.208.148-.355.254-.314.221-.77.549-1.356.983a40.587,40.587,0,0,0-4.64,4.041c-.918.923-1.882,1.974-2.9,3.118s-2.09,2.385-3.169,3.727a51,51,0,0,0-3.187,4.364c-.507.789-.978,1.619-1.453,2.463s-.959,1.707-1.444,2.574a100.235,100.235,0,0,0-5.009,10.056" transform="translate(-395.13 -159.969)"/></g><g transform="translate(14.944 5.467)"><path class="a" d="M412.056,181.491a2.273,2.273,0,0,1-.055-.475c-.023-.309-.046-.752-.065-1.3-.037-1.1-.037-2.62-.028-4.3s-.014-3.2-.069-4.29c-.028-.549-.051-.992-.069-1.3a2.266,2.266,0,0,1-.009-.48,2.07,2.07,0,0,1,.088.47c.046.3.092.747.134,1.3.092,1.1.134,2.62.129,4.3-.009,1.656-.023,3.15-.028,4.294v1.3A2.65,2.65,0,0,1,412.056,181.491Z" transform="translate(-411.753 -169.35)"/></g><g transform="translate(15.238 16.336)"><path class="a" d="M426.671,193.078a3.179,3.179,0,0,1-.567,0c-.364,0-.886-.018-1.536-.014-1.3,0-3.086.065-5.06.221s-3.755.378-5.037.577c-.641.092-1.158.184-1.518.244a3.07,3.07,0,0,1-.563.074,2.84,2.84,0,0,1,.544-.152c.355-.083.867-.194,1.508-.309,1.282-.235,3.063-.475,5.042-.637a49.52,49.52,0,0,1,5.079-.161c.65.014,1.176.046,1.536.078A2.805,2.805,0,0,1,426.671,193.078Z" transform="translate(-412.39 -192.913)"/></g><g transform="translate(2.352 13.871)"><path class="a" d="M389.577,206.2a1,1,0,0,1-.078-.18c-.051-.143-.111-.318-.185-.53-.157-.461-.369-1.139-.623-1.974-.5-1.674-1.125-4.013-1.776-6.6s-1.25-4.926-1.716-6.61c-.231-.821-.42-1.495-.558-1.993-.06-.217-.111-.4-.148-.544-.032-.125-.046-.189-.037-.194a1,1,0,0,1,.078.18c.051.143.111.318.184.53.157.461.369,1.139.623,1.974.5,1.674,1.126,4.013,1.776,6.6s1.25,4.926,1.716,6.61c.231.816.42,1.49.558,1.993.06.217.111.4.148.544A.567.567,0,0,1,389.577,206.2Z" transform="translate(-384.454 -187.57)"/></g><g transform="translate(7.47 28.507)"><path class="a" d="M414.794,219.3a.593.593,0,0,1-.194.055c-.152.032-.337.074-.558.124-.517.106-1.213.254-2.062.429-1.739.364-4.138.895-6.785,1.485s-5.056,1.1-6.8,1.425c-.872.166-1.582.291-2.076.369l-.567.083a.542.542,0,0,1-.2.014.78.78,0,0,1,.194-.055c.152-.032.337-.074.558-.125.517-.106,1.213-.254,2.062-.429,1.739-.364,4.138-.895,6.785-1.485s5.051-1.1,6.8-1.425c.872-.166,1.582-.291,2.076-.369.226-.032.415-.065.567-.083A.565.565,0,0,1,414.794,219.3Z" transform="translate(-395.55 -219.3)"/></g></g><g transform="translate(123.773)"><path class="a" d="M303.63,40.14c.84-4.806,3.127-11.827,5.872-15.858s6.974-7.237,11.8-7.906,10.162,1.6,12.339,5.96c1.167,2.339,1.379,5.032,2.233,7.5s2.717,4.945,5.323,5.143c2.306.175,4.53-1.485,6.8-1.042,2.957.577,4.1,4.221,4.115,7.233s-.411,6.356,1.439,8.736c1.513,1.947,4.11,2.615,6.2,3.921,4.525,2.823,6.462,8.649,6,13.963s-2.906,10.231-5.5,14.885a116.369,116.369,0,0,0-8.787-22.09c-2.1-4.022-5.927-7.44-9.318-10.452-5.208-4.622-16.638-6.831-23.548-7.68s-8.137-1.033-14.977-2.316" transform="translate(-303.63 -16.259)"/></g></g><g transform="translate(63.521 45.064)"><g transform="translate(0 0.736)"><path class="d" d="M145.942,80.3c-17.1,1.241-35.772,3.506-49.462,8.764l4.322,29.258s26.537-9.5,48.124-8.838Z" transform="translate(-96.48 -80.3)"/><g class="e"><path class="f" d="M145.942,80.3c-17.1,1.241-35.772,3.506-49.462,8.764l4.322,29.258s26.537-9.5,48.124-8.838Z" transform="translate(-96.48 -80.3)"/></g><g transform="translate(4.219 10.388)"><path class="d" d="M149.638,117.756a.959.959,0,0,1-.166.032c-.12.018-.281.037-.484.065l-1.868.235c-.812.1-1.8.217-2.952.383s-2.459.328-3.9.567c-5.77.89-13.709,2.366-22.339,4.594-3,.775-5.89,1.573-8.533,2.4l-.129.042-.018-.134c-.923-6.707-1.817-12.491-2.5-16.592-.351-2.039-.632-3.667-.826-4.8-.1-.549-.171-.978-.226-1.282-.023-.138-.042-.244-.055-.332a.435.435,0,0,1-.009-.115.461.461,0,0,1,.032.111c.018.083.042.194.074.327.065.3.152.729.263,1.278.221,1.116.53,2.745.89,4.793.724,4.1,1.651,9.876,2.592,16.587l-.148-.092c2.652-.84,5.54-1.638,8.547-2.412a217.832,217.832,0,0,1,22.372-4.53c1.444-.231,2.758-.383,3.907-.535s2.145-.263,2.957-.341,1.43-.143,1.873-.189c.2-.018.364-.032.489-.042A.432.432,0,0,1,149.638,117.756Z" transform="translate(-105.626 -102.82)"/></g><g transform="translate(6.038 13.224)"><path class="d" d="M152.344,113.955c-.014,0-.065-.2-.2-.581a6.152,6.152,0,0,0-.881-1.513,7.648,7.648,0,0,0-2.076-1.817,7.961,7.961,0,0,0-.738-.392,6.61,6.61,0,0,0-.835-.3,4.546,4.546,0,0,0-1.9-.185,4.011,4.011,0,0,0-1.937.761,6.475,6.475,0,0,0-1.55,1.684,25.711,25.711,0,0,0-2.173,4.64,5.808,5.808,0,0,1-1.61,2.306,3.061,3.061,0,0,1-1.338.641,2.628,2.628,0,0,1-1.5-.175c-1.947-.77-2.814-3.017-4.783-3.7a3.86,3.86,0,0,0-2.92.24,3.736,3.736,0,0,0-1.158.895,5.818,5.818,0,0,0-.77,1.241,8.053,8.053,0,0,1-1.513,2.509,2.258,2.258,0,0,1-1.328.6,2.6,2.6,0,0,1-1.388-.3,4.981,4.981,0,0,1-1.91-1.877,16.268,16.268,0,0,1-1.01-2.3,10.862,10.862,0,0,0-1-2.08,4.162,4.162,0,0,0-1.531-1.421,3.953,3.953,0,0,0-3.506-.1,5.966,5.966,0,0,0-2.228,1.605,4.322,4.322,0,0,0-.835,1.527c-.12.383-.134.6-.152.6a2.609,2.609,0,0,1,.106-.609,4.221,4.221,0,0,1,.807-1.573,5.979,5.979,0,0,1,2.246-1.67,4.1,4.1,0,0,1,3.639.074,4.344,4.344,0,0,1,1.605,1.467,10.954,10.954,0,0,1,1.033,2.113,16.089,16.089,0,0,0,1.006,2.265,4.744,4.744,0,0,0,1.831,1.79,2.386,2.386,0,0,0,1.268.272,2.025,2.025,0,0,0,1.195-.544,7.985,7.985,0,0,0,1.458-2.445,6.13,6.13,0,0,1,.8-1.292,3.922,3.922,0,0,1,1.227-.95,4.09,4.09,0,0,1,3.1-.254,6.4,6.4,0,0,1,2.5,1.882,6.979,6.979,0,0,0,2.3,1.827,2.384,2.384,0,0,0,1.37.161,2.824,2.824,0,0,0,1.236-.59,5.618,5.618,0,0,0,1.55-2.214,25.636,25.636,0,0,1,2.21-4.663,6.692,6.692,0,0,1,1.605-1.725,4.14,4.14,0,0,1,2.03-.78,4.751,4.751,0,0,1,1.965.208,6.935,6.935,0,0,1,.853.318,7.916,7.916,0,0,1,2.828,2.288,5.92,5.92,0,0,1,.853,1.554,4.014,4.014,0,0,1,.12.447A.729.729,0,0,1,152.344,113.955Z" transform="translate(-109.57 -108.968)"/></g><g transform="translate(2.449 14.314)"><path class="d" d="M102.832,111.386c.014.065-.212.161-.5.217s-.53.046-.544-.018.212-.161.5-.217S102.818,111.321,102.832,111.386Z" transform="translate(-101.789 -111.331)"/></g><g transform="translate(3.397 19.684)"><path class="d" d="M104.7,123c.028.06-.138.2-.374.309s-.447.148-.475.088.138-.2.374-.309S104.668,122.94,104.7,123Z" transform="translate(-103.843 -122.974)"/></g><g transform="translate(4.339 25.513)"><path class="d" d="M106.741,135.647c.023.065-.152.18-.387.263s-.443.1-.466.037.152-.18.387-.263S106.718,135.587,106.741,135.647Z" transform="translate(-105.886 -135.61)"/></g><g transform="translate(5.382 31.251)"><path class="d" d="M109.094,148.087c.018.065-.175.18-.438.263s-.489.1-.507.032.175-.18.438-.263S109.071,148.027,109.094,148.087Z" transform="translate(-108.147 -148.049)"/></g><g transform="translate(38.573 2.606)"><path class="d" d="M180.107,87.062a2.286,2.286,0,0,1,.558-.125c.369-.065.9-.143,1.591-.24,1.37-.194,3.326-.447,5.655-.733l.111-.014.009.111c.18,1.965.392,4.225.613,6.624l.009.1.009.115-.115.014c-2.814.346-5.438.664-7.648.936l-.1.014-.009-.1c-.212-2.007-.392-3.681-.521-4.885-.055-.558-.1-1.01-.129-1.347a3.708,3.708,0,0,1-.032-.471,4.147,4.147,0,0,1,.083.494c.046.341.111.793.185,1.361.152,1.19.36,2.841.613,4.82l-.115-.088,7.643-.973-.106.129-.009-.1c-.212-2.4-.411-4.663-.586-6.628l.12.1C183.543,86.67,180.974,86.96,180.107,87.062Z" transform="translate(-180.104 -85.95)"/><g transform="translate(1.28 2.185)"><path class="d" d="M188.706,90.776c0,.069-1.315.069-2.92.244s-2.892.443-2.906.374a14.389,14.389,0,0,1,5.826-.618Z" transform="translate(-182.88 -90.687)"/></g><g transform="translate(1.737 3.921)"><path class="d" d="M189.322,94.52c0,.069-1.227.115-2.726.263s-2.712.332-2.726.263a15.684,15.684,0,0,1,5.452-.526Z" transform="translate(-183.87 -94.451)"/></g><g transform="translate(2.217 5.453)"><path class="d" d="M188.051,97.8a5.378,5.378,0,0,1-1.554.318,5.14,5.14,0,0,1-1.587.078,5.378,5.378,0,0,1,1.554-.318A5.505,5.505,0,0,1,188.051,97.8Z" transform="translate(-184.91 -97.771)"/></g></g></g><g transform="translate(80.081)"><path class="d" d="M322.832,88.048c-16.744-5.1-30.873-9.461-49.84-9.341l-2.9,29.812c19.7,1.744,26.283,3.035,44.476,9.618Z" transform="translate(-270.09 -78.705)"/><g class="e"><path class="f" d="M322.832,88.048c-16.744-5.1-30.873-9.461-49.84-9.341l-2.9,29.812c19.7,1.744,26.283,3.035,44.476,9.618Z" transform="translate(-270.09 -78.705)"/></g><g transform="translate(7.236 8.1)"><path class="d" d="M293.375,102.633l.738-6.324a7.4,7.4,0,0,0-5.162,1.43,7.767,7.767,0,0,0-3.174,6.255,9.194,9.194,0,0,0,.028.936v.023h0l7.39-.83Z" transform="translate(-285.777 -96.266)"/><g transform="translate(8.221 0.168)"><path class="d" d="M310.611,101.8a7.149,7.149,0,0,0-5.263-5.014c-.074-.018-.148-.032-.226-.051l-.143-.028c-.143-.028-.286-.046-.429-.065a.028.028,0,0,1-.018,0h0a.028.028,0,0,1-.018,0h0l-.738,6.324-.175,1.485,6.974,2.546.009,0h0a7.989,7.989,0,0,0,.36-1.619A8.625,8.625,0,0,0,310.611,101.8Z" transform="translate(-303.6 -96.63)"/></g><g class="g" transform="translate(8.221 0.168)"><path d="M310.611,101.8a7.149,7.149,0,0,0-5.263-5.014c-.074-.018-.148-.032-.226-.051l-.143-.028c-.143-.028-.286-.046-.429-.065a.028.028,0,0,1-.018,0h0a.028.028,0,0,1-.018,0h0l-.738,6.324-.175,1.485,6.974,2.546.009,0h0a7.989,7.989,0,0,0,.36-1.619A8.625,8.625,0,0,0,310.611,101.8Z" transform="translate(-303.6 -96.63)"/></g><g transform="translate(0.315 8.688)"><path class="d" d="M293.85,115.1l-7.389.83a7.329,7.329,0,0,0,14.369,1.716l-6.974-2.546" transform="translate(-286.46 -115.1)"/></g></g><g transform="translate(29.194 10.142)"><path class="d" d="M350.456,105.576a3.8,3.8,0,0,1-.65-.263c-.411-.185-1.01-.447-1.753-.761a54.9,54.9,0,0,0-5.941-2.09,54.028,54.028,0,0,0-6.149-1.361c-.8-.129-1.444-.221-1.891-.281a3.479,3.479,0,0,1-.692-.12,3.833,3.833,0,0,1,.7.028c.452.032,1.1.1,1.905.208a44.64,44.64,0,0,1,12.136,3.464c.738.332,1.328.618,1.73.83A3.991,3.991,0,0,1,350.456,105.576Z" transform="translate(-333.38 -100.692)"/></g><g transform="translate(28.682 13.256)"><path class="d" d="M349.351,112.326a3.792,3.792,0,0,1-.65-.263c-.411-.185-1.01-.447-1.757-.761a54.907,54.907,0,0,0-5.941-2.09,54.021,54.021,0,0,0-6.149-1.361c-.8-.129-1.444-.221-1.891-.281a3.48,3.48,0,0,1-.692-.12,3.828,3.828,0,0,1,.7.028c.452.032,1.1.1,1.9.208a44.639,44.639,0,0,1,12.136,3.464c.738.332,1.328.618,1.73.83A3.277,3.277,0,0,1,349.351,112.326Z" transform="translate(-332.27 -107.442)"/></g><g transform="translate(28.174 16.365)"><path class="d" d="M348.251,119.066a3.793,3.793,0,0,1-.65-.263c-.411-.185-1.01-.447-1.757-.761a54.9,54.9,0,0,0-5.941-2.09,54.025,54.025,0,0,0-6.149-1.361c-.8-.129-1.444-.221-1.891-.281a3.48,3.48,0,0,1-.692-.12,3.828,3.828,0,0,1,.7.028c.452.032,1.1.1,1.9.208a44.643,44.643,0,0,1,12.136,3.464c.738.332,1.328.618,1.73.83A3.653,3.653,0,0,1,348.251,119.066Z" transform="translate(-331.17 -114.182)"/></g><g transform="translate(27.662 19.483)"><path class="d" d="M346.638,125.821a3.7,3.7,0,0,1-.632-.263c-.4-.185-.978-.447-1.7-.757a51.678,51.678,0,0,0-5.761-2.085,51.1,51.1,0,0,0-5.974-1.365c-.775-.129-1.4-.221-1.84-.281a3.444,3.444,0,0,1-.673-.12,3.631,3.631,0,0,1,.683.028c.438.032,1.075.1,1.854.208a42.123,42.123,0,0,1,11.776,3.464c.715.332,1.287.618,1.67.83A3.392,3.392,0,0,1,346.638,125.821Z" transform="translate(-330.06 -120.942)"/></g><g transform="translate(27.155 22.59)"><path class="d" d="M343.841,131.932a2.863,2.863,0,0,1-.572-.226c-.4-.18-.913-.406-1.527-.678a42.331,42.331,0,0,0-5.152-1.891,41.7,41.7,0,0,0-5.374-1.112c-.66-.092-1.213-.166-1.651-.231a3.593,3.593,0,0,1-.6-.106,2.966,2.966,0,0,1,.613.014c.392.023.964.074,1.665.152a34.5,34.5,0,0,1,5.42,1.052,34.141,34.141,0,0,1,5.157,1.97c.637.3,1.149.558,1.495.747A2.865,2.865,0,0,1,343.841,131.932Z" transform="translate(-328.96 -127.679)"/></g><g transform="translate(26.445 25.7)"><path class="d" d="M335.571,135.915a7.855,7.855,0,0,1-1.19-.244c-.729-.171-1.739-.387-2.865-.581s-2.154-.337-2.9-.443a6.583,6.583,0,0,1-1.2-.208,5.481,5.481,0,0,1,1.218.042c.747.065,1.785.175,2.915.374a26.157,26.157,0,0,1,2.869.655A5.22,5.22,0,0,1,335.571,135.915Z" transform="translate(-327.42 -134.421)"/></g><g transform="translate(3.058 3.471)"><path class="d" d="M279.469,86.294s.125-.009.383-.018.655-.023,1.153-.037c1.019-.023,2.491-.009,4.373.1a69.655,69.655,0,0,1,15.36,2.749l.083.028-.014.088c-1.153,6.605-2.528,14.461-3.995,22.87-.06.341-.12.678-.18,1.015l-.023.129-.125-.032a102.264,102.264,0,0,0-10.254-2.117c-3.3-.507-6.462-.867-9.4-1.052L276.72,110l.014-.111c.807-7.053,1.485-12.957,1.96-17.113.24-2.057.434-3.676.563-4.8q.1-.816.152-1.259.028-.2.042-.318c.014-.078.018-.115.018-.111s0,.042,0,.115-.018.194-.032.332c-.032.3-.074.729-.129,1.282-.12,1.126-.291,2.758-.507,4.825-.447,4.142-1.089,10.033-1.85,17.067l-.1-.115c2.948.18,6.112.53,9.424,1.033a100.166,100.166,0,0,1,10.282,2.113l-.148.1c.06-.332.12-.673.18-1.015,1.481-8.4,2.864-16.255,4.027-22.861l.069.115a70.993,70.993,0,0,0-15.3-2.823c-1.873-.125-3.358-.157-4.354-.157-.494,0-.876,0-1.144,0Z" transform="translate(-276.72 -86.229)"/></g></g></g><g transform="translate(74.852 32.805)"><g transform="translate(55.672 69.791)"><path class="d" d="M242.34,210.354l16.329,3.616,2.5-3.616-.4-4.654-2.482-2.269h-8.552l-7.989,7.2" transform="translate(-241.74 -203.43)"/></g><g class="g" transform="translate(55.672 69.791)"><path d="M242.34,210.354l16.329,3.616,2.5-3.616-.4-4.654-2.482-2.269h-8.552l-7.989,7.2" transform="translate(-241.74 -203.43)"/></g><g transform="translate(76.837 37.408)"><path class="h" d="M291.957,138.907l20.61-2.777,3.243-.913s7.431-1.633,8.123-1.877c.8-.286,1.13.032,1.218.332.134.471-.318,1-1,1.268-.235.092-4,1.4-4,1.4a8.992,8.992,0,0,1,1.273.369,4.351,4.351,0,0,1,2.2,2.823c.434,1.356.434,1.771-.083,1.965a.706.706,0,0,1-.6-.083,1.38,1.38,0,0,1-.618-.775c-.724-2.159-2.076-2.329-2.076-2.329l-.424.12s1.393.973,1.37,2.15a1.325,1.325,0,0,1-.111.507,1.783,1.783,0,0,1-1.988,2.343c-.3-.051-.618-.226-.66-.526a.906.906,0,0,1,.1-.461,1.583,1.583,0,0,0,.074-.24l-1.236.171s-2.8.231-4,.471l-19.3,5.812a4.994,4.994,0,0,1-6.25-3.427h0A5.007,5.007,0,0,1,291.957,138.907Z" transform="translate(-287.622 -133.228)"/><g transform="translate(25.415 2.329)"><g transform="translate(0.009 0.001)"><path class="h" d="M342.74,139.378a1.037,1.037,0,0,0,.89.821c.424.088.867.032,1.3.088,1.282.175,2.283,1.342,3.575,1.453.18.014.406-.023.461-.194s-.088-.314-.212-.424l-3.215-2.841" transform="translate(-342.74 -138.28)"/></g><path class="i" d="M345.52,138.278a1.584,1.584,0,0,1,.378.272c.235.189.567.461.973.807.42.364.9.775,1.425,1.222l.41.355c.12.125.332.231.374.526a.361.361,0,0,1-.221.341.718.718,0,0,1-.346.055,2.617,2.617,0,0,1-.623-.125,15.845,15.845,0,0,1-2.062-1.047,3.2,3.2,0,0,0-.918-.3c-.3-.046-.59-.037-.863-.055a1.518,1.518,0,0,1-1.176-.507c-.189-.263-.152-.457-.143-.452a1.213,1.213,0,0,0,.217.387,1.461,1.461,0,0,0,1.107.4,8.505,8.505,0,0,1,.881.028,3.513,3.513,0,0,1,.987.3,18.652,18.652,0,0,0,2.039,1.015,2.733,2.733,0,0,0,.558.115c.18.014.332-.051.314-.148,0-.106-.148-.235-.286-.355l-.406-.364-1.388-1.264c-.392-.364-.71-.66-.923-.867S345.506,138.292,345.52,138.278Z" transform="translate(-342.72 -138.277)"/></g><g transform="translate(32.163 5.004)"><path class="i" d="M357.35,144.221a1.738,1.738,0,0,1,.812-.009,1.4,1.4,0,0,1,.706.484,3.521,3.521,0,0,1,.507.964,5.708,5.708,0,0,0,.47,1.029,1.836,1.836,0,0,0,.673.65.7.7,0,0,0,.632.014c.134-.074.185-.138.18-.143s-.074.037-.2.088a.676.676,0,0,1-.553-.055,1.8,1.8,0,0,1-.6-.627,6.382,6.382,0,0,1-.448-1.006,3.361,3.361,0,0,0-.544-1,1.439,1.439,0,0,0-.793-.5,1.318,1.318,0,0,0-.632.018C357.414,144.166,357.345,144.212,357.35,144.221Z" transform="translate(-357.35 -144.076)"/></g><g transform="translate(31.711 1.6)"><path class="i" d="M361.453,136.7a4.594,4.594,0,0,0-.752.254c-.512.189-1.121.411-1.79.66s-1.287.452-1.8.632a4.669,4.669,0,0,0-.743.281,3.64,3.64,0,0,0,.775-.175c.47-.134,1.116-.337,1.822-.59s1.333-.507,1.78-.706A3.373,3.373,0,0,0,361.453,136.7Z" transform="translate(-356.37 -136.695)"/></g><g transform="translate(30.576 6.296)"><path class="i" d="M354.952,146.879c-.009.009.055.074.161.189a.731.731,0,0,1,.231.567.385.385,0,0,1-.245.3,2.213,2.213,0,0,1-.5.138.887.887,0,0,0-.558.3.75.75,0,0,0-.092.678.864.864,0,0,0,.461.5,1.089,1.089,0,0,0,.623.092,3.511,3.511,0,0,0,.955-.355,2,2,0,0,0,.549-.411.526.526,0,0,0,.129-.217c-.014,0-.055.069-.171.175a2.446,2.446,0,0,1-.558.355,3.759,3.759,0,0,1-.927.314.853.853,0,0,1-.913-.494.6.6,0,0,1,.069-.535.771.771,0,0,1,.466-.249,2.048,2.048,0,0,0,.526-.161.52.52,0,0,0,.3-.411.765.765,0,0,0-.3-.623C355.035,146.916,354.957,146.869,354.952,146.879Z" transform="translate(-353.909 -146.878)"/></g><g transform="translate(30.741 7.93)"><path class="i" d="M354.7,151.356c0-.009-.088,0-.2.1a.694.694,0,0,0-.231.572.926.926,0,0,0,.544.733,1.513,1.513,0,0,0,1.121.014,1.807,1.807,0,0,0,.89-.678,1.766,1.766,0,0,0,.3-.863,1.7,1.7,0,0,0-.065-.609c-.046-.138-.088-.208-.1-.2a2.9,2.9,0,0,1,.051.8,1.737,1.737,0,0,1-.309.789,1.755,1.755,0,0,1-.821.613,1.373,1.373,0,0,1-1.006,0,.818.818,0,0,1-.494-.613.663.663,0,0,1,.161-.517C354.632,151.4,354.711,151.37,354.7,151.356Z" transform="translate(-354.266 -150.42)"/></g><g transform="translate(26.642 4.746)"><path class="i" d="M346.487,145.945c.014,0,0-.148-.134-.355a1.513,1.513,0,0,0-.752-.614l.009.138a4.406,4.406,0,0,0,.47-.263,3.406,3.406,0,0,0,1.292-1.333,8.684,8.684,0,0,1-1.379,1.2c-.152.1-.309.184-.452.258l-.161.083.171.06a1.58,1.58,0,0,1,.724.526C346.413,145.82,346.464,145.95,346.487,145.945Z" transform="translate(-345.38 -143.518)"/></g><g transform="translate(33.89 4.967)"><path class="i" d="M361.369,144c-.032-.028-.249.212-.272.59a.713.713,0,0,0,.189.623c.042-.018-.06-.281-.032-.613S361.41,144.025,361.369,144Z" transform="translate(-361.094 -143.995)"/></g></g><g transform="translate(0 42.223)"><path class="h" d="M135.869,150.992a63.317,63.317,0,0,0-3.543-5.291,26.091,26.091,0,0,0-5.706-2.03c-.406.129-6.181,1.116-5.521,1.8s4.691-.06,4.691-.06l.54.272a24.725,24.725,0,0,0-4.211.978c-.673.387-.443,1.213.194,1.149s3.662-.65,3.842-.526-3.289.816-3.663,1.038c-.5.3-.554,1.19.083,1.149.374-.028,3.644-.872,3.644-.872a28.2,28.2,0,0,0-2.832,1.227c-.392.374-.083.936.48.812.387-.083,2.219-.959,2.735-1.07,0,0,.484.129.923,1.107.2.457,1.135,3.3,2.837,3.261a5.352,5.352,0,0,1,2.989,1.209Z" transform="translate(-121.046 -143.665)"/><g transform="translate(0.066 1.557)"><path class="i" d="M121.19,147.3a2.638,2.638,0,0,0,1.052.291,6.39,6.39,0,0,0,1.19.051c.443-.051.923-.115,1.43-.189.374-.055.733-.106,1.079-.157l-.065,0a15.068,15.068,0,0,0,2.491.78,15.6,15.6,0,0,0-2.4-1.024l-.028-.009-.037,0c-.337.046-.7.092-1.07.143-.494.074-.964.143-1.416.208a7.474,7.474,0,0,1-1.153.009C121.6,147.358,121.2,147.261,121.19,147.3Z" transform="translate(-121.19 -147.04)"/></g><g transform="translate(5.725 3.512)"><g transform="translate(0.128 0.139)"><path class="h" d="M140.449,154.679a1.156,1.156,0,0,1-1.342,0c-.411-.249-.729-.627-1.121-.9-1.176-.826-2.865-.632-4-1.513-.157-.125-.314-.323-.226-.5s.3-.184.494-.18c1.587.037,3.174.078,4.756.115" transform="translate(-133.735 -151.579)"/></g><path class="i" d="M138.86,151.523a1.9,1.9,0,0,0-.512-.065c-.332-.023-.812-.051-1.4-.078-.618-.023-1.315-.051-2.08-.078-.2,0-.4-.014-.6-.018a.953.953,0,0,0-.7.143.407.407,0,0,0-.078.443.809.809,0,0,0,.24.309,3.453,3.453,0,0,0,.6.369,18.274,18.274,0,0,0,2.463.706,3.587,3.587,0,0,1,.978.443c.277.189.507.415.743.6a1.689,1.689,0,0,0,1.338.475c.351-.069.466-.258.457-.258a1.484,1.484,0,0,1-.47.157,1.609,1.609,0,0,1-1.2-.517c-.221-.189-.443-.429-.738-.641a3.8,3.8,0,0,0-1.029-.5,20.919,20.919,0,0,1-2.422-.71,2.645,2.645,0,0,1-.54-.332c-.152-.125-.231-.291-.143-.355.083-.083.3-.078.5-.074s.406,0,.6.009c.766.009,1.467.014,2.08.023.59,0,1.07,0,1.4-.009A2.019,2.019,0,0,0,138.86,151.523Z" transform="translate(-133.458 -151.278)"/></g></g><g transform="translate(33.46 157.594)"><path class="d" d="M198.4,393.78l-1.1,12.1-3.63,9.322a1.241,1.241,0,0,0,.789,1.638h0a1.233,1.233,0,0,0,1.121-.194c2.043-1.559,9.534-7.32,9.562-8.211.037-1.029,2.007-12.685,2.007-12.685Z" transform="translate(-193.584 -393.78)"/><g class="j" transform="translate(0.87 13.838)"><path class="f" d="M195.47,433l10.78-9.221-.06.512a1.866,1.866,0,0,1-.581,1.158c-.867.812-3.317,3.007-8.981,7.362a1.229,1.229,0,0,1-1.158.189Z" transform="translate(-195.47 -423.78)"/></g><g class="j" transform="translate(9.234 9.585)"><path class="f" d="M213.985,414.639a.759.759,0,0,0-.318.955.727.727,0,0,0,.941.323.794.794,0,0,0,.328-1.01.751.751,0,0,0-1.019-.226" transform="translate(-213.604 -414.56)"/></g><g transform="translate(1.921 16.499)"><path class="k" d="M200.061,431.15c-.074.028-.272-.637-.95-1.061a3.808,3.808,0,0,0-1.361-.424c-.009-.032.157-.106.443-.115a1.984,1.984,0,0,1,1.79,1.148C200.093,430.965,200.088,431.145,200.061,431.15Z" transform="translate(-197.749 -429.549)"/></g><g transform="translate(1.012 18.571)"><path class="k" d="M197.952,435.088c-.065.046-.406-.392-1.01-.641a10.423,10.423,0,0,0-1.162-.286,1.393,1.393,0,0,1,1.269.042C197.735,434.493,198.021,435.065,197.952,435.088Z" transform="translate(-195.778 -434.041)"/></g><g transform="translate(2.835 14.449)"><path class="k" d="M202.963,426.864a12.549,12.549,0,0,0-1.49-1.093,13.009,13.009,0,0,0-1.744-.623,3.406,3.406,0,0,1,3.234,1.716Z" transform="translate(-199.73 -425.104)"/></g><g transform="translate(3.577 11.837)"><path class="k" d="M204.471,420.165c-.042.069-.673-.286-1.541-.415s-1.578,0-1.591-.078a3.1,3.1,0,0,1,3.132.494Z" transform="translate(-201.338 -419.441)"/></g><g transform="translate(3.885 8.268)"><path class="k" d="M205.246,412.454a3.949,3.949,0,0,0-3.238-.254c-.018-.028.134-.166.429-.3a2.7,2.7,0,0,1,1.241-.194,2.761,2.761,0,0,1,1.195.383C205.14,412.269,205.265,412.426,205.246,412.454Z" transform="translate(-202.007 -411.703)"/></g><g transform="translate(3.885 5.633)"><path class="k" d="M203.752,408.228a1.084,1.084,0,0,1,.037-.457,3.174,3.174,0,0,1,.5-1.153,1.422,1.422,0,0,1,.678-.6.506.506,0,0,1,.549.175.807.807,0,0,1,.129.567,1.764,1.764,0,0,1-1.716,1.444,2.043,2.043,0,0,1-1.873-1.287.718.718,0,0,1,.032-.59.489.489,0,0,1,.54-.2,1.749,1.749,0,0,1,.747.5,3.481,3.481,0,0,1,.715,1.033,1.163,1.163,0,0,1,.138.438,5.59,5.59,0,0,0-.987-1.333,1.612,1.612,0,0,0-.664-.424.259.259,0,0,0-.3.106.487.487,0,0,0,0,.387,1.815,1.815,0,0,0,1.633,1.1,1.533,1.533,0,0,0,1.476-1.2.6.6,0,0,0-.074-.4.269.269,0,0,0-.3-.1,1.3,1.3,0,0,0-.586.5A4.793,4.793,0,0,0,203.752,408.228Z" transform="translate(-202.006 -405.991)"/></g></g><g transform="translate(36.354 72.678)"><g transform="translate(0 3.639)"><path class="k" d="M212.9,305.955l9.055-71.7-2.9-16.67-17.076.9-2.126,86.147a1.32,1.32,0,0,0,1.061,1.328l9.945,1.531A1.785,1.785,0,0,0,212.9,305.955Z" transform="translate(-199.859 -217.58)"/></g><g transform="translate(14.609)"><path class="k" d="M238.758,232.4l16.467,16.3-23.7,5.761,1.688,11.956,32.077-4.364a10.1,10.1,0,0,0,6.827-4.1h0a10.094,10.094,0,0,0,.152-11.587l-24.987-36.68-11.163,3.639Z" transform="translate(-231.53 -209.69)"/></g><g transform="translate(20.914 18.566)"><path class="l" d="M245.213,249.94a9.408,9.408,0,0,1,.572,2.048,9.61,9.61,0,0,1,.337,2.1,9.411,9.411,0,0,1-.572-2.048A9.606,9.606,0,0,1,245.213,249.94Z" transform="translate(-245.198 -249.94)"/></g><g transform="translate(11.56 18.359)"><path class="l" d="M231.89,277.411s.134-.051.392-.129l1.153-.36c1.024-.309,2.514-.766,4.419-1.342,3.838-1.153,9.35-2.814,16.08-4.839l-.042.152c-5.577-5.937-12.344-13.146-19.77-21.052l.2-.069c-.392,3.307-.8,6.762-1.218,10.286-2.039,17.081-3.953,32.529-5.438,43.705-.738,5.586-1.384,10.1-1.859,13.215-.263,1.554-.438,2.763-.618,3.575-.088.4-.152.706-.2.923s-.074.314-.074.314.014-.111.051-.318.1-.526.175-.927c.166-.812.323-2.025.572-3.579.447-3.118,1.07-7.634,1.78-13.225,1.439-11.177,3.33-26.629,5.369-43.71.42-3.524.83-6.979,1.222-10.286l.032-.254.175.185c7.413,7.92,14.17,15.143,19.733,21.089l.1.111-.143.042c-6.744,1.993-12.261,3.626-16.1,4.76-1.914.558-3.409,1-4.433,1.3l-1.162.332C232.028,277.383,231.89,277.411,231.89,277.411Z" transform="translate(-224.92 -249.49)"/></g><g transform="translate(13.196 22.713)"><path class="l" d="M228.468,326.88c-.065-.009,1.817-15.227,4.2-33.986s4.373-33.968,4.437-33.963-1.813,15.222-4.2,33.991S228.537,326.884,228.468,326.88Z" transform="translate(-228.467 -258.93)"/></g><g transform="translate(19.158 10.978)"><path class="l" d="M241.4,233.49a5.32,5.32,0,0,1,.383,1.112c.2.7.452,1.665.687,2.749s.411,2.066.517,2.786a5.353,5.353,0,0,1,.115,1.172,6.232,6.232,0,0,1-.281-1.139c-.166-.793-.364-1.73-.586-2.763s-.443-1.965-.618-2.758A5.593,5.593,0,0,1,241.4,233.49Z" transform="translate(-241.392 -233.49)"/></g><g transform="translate(19.824 9.443)"><path class="l" d="M243.235,230.29c-.028-.014.231-.226.669-.074a.78.78,0,0,1,.5.59.856.856,0,0,1-.374.872.834.834,0,0,1-.946-.092.729.729,0,0,1,.1-1.158c.106-.06.18-.06.18-.046.023.032-.254.129-.323.5a.544.544,0,0,0,.189.535.629.629,0,0,0,.683.06.651.651,0,0,0,.281-.632.631.631,0,0,0-.351-.47A1.249,1.249,0,0,0,243.235,230.29Z" transform="translate(-242.837 -230.161)"/></g><g transform="translate(38.336 38.997)"><path class="l" d="M287.79,297.041c-.051.055-.978-.8-2.311-1.568s-2.532-1.162-2.509-1.232a9.144,9.144,0,0,1,4.82,2.8Z" transform="translate(-282.969 -294.233)"/></g></g><g transform="translate(9.748 24.342)"><g transform="translate(24.71)"><path class="d" d="M205.206,108l-9.456,4.567,4.078,28.451-1.6,12.768a4.994,4.994,0,0,0,1.665,4.377h0l15.273-.3,10.7-5.881,4.913-.83-2.011-9.719.9-13.787,11.177,5.969a3.888,3.888,0,0,0,2.809.337l20.494-5.3-1.066-7.9-18.552,2.1L230.4,110.366,219.879,108l-1.873-3.1H207.245l-.752.563a2.251,2.251,0,0,0-.78,1.066Z" transform="translate(-195.75 -104.9)"/></g><g transform="translate(0 1.052)"><g transform="translate(0 6.61)"><path class="d" d="M166.89,121.51a11.353,11.353,0,0,0-4.258,5.554c-1.079,3.358-3.519,16.933-3.519,16.933l-10.743-6.67-6.19,6.509,14.322,12.63a7.274,7.274,0,0,0,7.975,1.1h0a7.29,7.29,0,0,0,4.055-5.577l1.757-12.874Z" transform="translate(-142.18 -121.51)"/></g><g transform="translate(47.935 46.307)"><path class="h" d="M255.136,208.548l-.664-.978-7.071,1.305-1.3,3.012Z" transform="translate(-246.1 -207.57)"/></g><g transform="translate(28.852 30.315)"><path class="d" d="M204.73,194.792c6.319,2.542,13.063,1.61,19.083-1.582,1.817-.964,3.5-2.159,5.323-3.109a11.282,11.282,0,0,1,5.9-1.508,5.783,5.783,0,0,1,4.94,3.16,3.938,3.938,0,0,1-1.933,5.157c.226.2.457.406.683.609a6.127,6.127,0,0,0,2.8-7.948c-1.061-2.154-3.293-3.436-4.926-5.194-2.4-2.583-2.652-7.588-2.671-11.476" transform="translate(-204.73 -172.9)"/></g><g transform="translate(34.167 2.043)"><path class="k" d="M224.8,117.113a2.077,2.077,0,0,1-.466.028,1.788,1.788,0,0,0-1.121.517,2.639,2.639,0,0,0-.558,1.8,6.016,6.016,0,0,0,.512,2.417l.18.4-.346-.258a18.9,18.9,0,0,1-2.38-2.108,17.489,17.489,0,0,1-3.662-5.609,12.328,12.328,0,0,1-.6-1.951,4.309,4.309,0,0,1-.106-.738,22.224,22.224,0,0,0,.858,2.625,18.455,18.455,0,0,0,3.681,5.508,19.576,19.576,0,0,0,2.343,2.09l-.171.138a5.5,5.5,0,0,1-.392-1.292,5.668,5.668,0,0,1-.106-1.222,2.73,2.73,0,0,1,.65-1.9,1.793,1.793,0,0,1,1.218-.494A1.962,1.962,0,0,1,224.8,117.113Z" transform="translate(-216.251 -111.61)"/></g><g transform="translate(43.281)"><g transform="translate(0 0.093)"><path class="d" d="M236.01,114.835a2.479,2.479,0,0,1,2.491.8c.369.42.577,1.006,1.066,1.282a3.441,3.441,0,0,0,2.472.148s.272-1.315.415-1.859a41.422,41.422,0,0,0,1.052-6.31c-1.49-.72-1.079-1.67-3.755-1.49a6.841,6.841,0,0,1,.092,3.773" transform="translate(-236.01 -107.382)"/></g><g transform="translate(0.005)"><path class="k" d="M239.849,111.068c-.023-.009.1-.355.157-1.01a7.507,7.507,0,0,0-.332-2.735l-.032-.111.111,0a4.582,4.582,0,0,1,1.974.18,3.046,3.046,0,0,1,.913.655,3.627,3.627,0,0,0,.923.641l.074.032-.009.083c-.12,1.121-.254,2.343-.466,3.607q-.208,1.238-.5,2.389c-.194.761-.346,1.495-.507,2.186l-.009.046-.032.018a1.5,1.5,0,0,1-.789.194,4.9,4.9,0,0,1-.743-.046,4.188,4.188,0,0,1-.692-.152,1.441,1.441,0,0,1-.6-.332,6.29,6.29,0,0,1-.71-.973,2.439,2.439,0,0,0-.729-.66,2.6,2.6,0,0,0-1.328-.415,3.006,3.006,0,0,0-.5.069,1.033,1.033,0,0,1,.5-.143,2.521,2.521,0,0,1,1.4.369,2.615,2.615,0,0,1,.789.678,6.727,6.727,0,0,0,.706.936,2.274,2.274,0,0,0,1.2.415,4.464,4.464,0,0,0,.706.037,1.335,1.335,0,0,0,.664-.157l-.042.065c.157-.7.309-1.444.5-2.2s.351-1.55.489-2.371c.212-1.255.351-2.472.475-3.589l.065.115a3.917,3.917,0,0,1-.973-.683,2.87,2.87,0,0,0-.844-.627,4.532,4.532,0,0,0-1.882-.194l.078-.115a7.113,7.113,0,0,1,.263,2.8,4.994,4.994,0,0,1-.157.752A1.181,1.181,0,0,1,239.849,111.068Z" transform="translate(-236.02 -107.18)"/></g></g><g transform="translate(42.704 8.215)"><path class="k" d="M254.926,164.216c-.018,0,.023-.184,0-.53a3.185,3.185,0,0,0-.457-1.421,4.718,4.718,0,0,0-1.7-1.637,7.158,7.158,0,0,0-3.026-.83c-1.172-.106-2.472-.042-3.87-.138a14.433,14.433,0,0,1-4.364-.927,8.992,8.992,0,0,1-3.935-2.938,6.911,6.911,0,0,1-1.13-2.371,9.189,9.189,0,0,1-.258-2.689,48,48,0,0,1,.743-5.235,39.9,39.9,0,0,0,.461-4.876,40.422,40.422,0,0,0-.609-8.261,41.44,41.44,0,0,0-1.361-5.425c-.2-.632-.374-1.112-.494-1.444-.051-.152-.1-.277-.129-.374a.554.554,0,0,1-.037-.129.754.754,0,0,1,.06.12c.037.1.088.217.152.369.129.323.323.8.535,1.43a37.851,37.851,0,0,1,1.439,5.425,39.479,39.479,0,0,1,.66,8.3,38.6,38.6,0,0,1-.452,4.9,46.714,46.714,0,0,0-.738,5.208,7.475,7.475,0,0,0,1.338,4.908,8.806,8.806,0,0,0,3.829,2.874,14.329,14.329,0,0,0,4.294.932c1.379.1,2.685.046,3.87.166a7.157,7.157,0,0,1,3.077.886,4.8,4.8,0,0,1,1.707,1.707,3.161,3.161,0,0,1,.424,1.467,1.829,1.829,0,0,1-.023.4C254.94,164.175,254.93,164.221,254.926,164.216Z" transform="translate(-234.758 -124.99)"/></g><g transform="translate(38.415 39.028)"><path class="k" d="M243.016,191.79a4.839,4.839,0,0,1-.53.549c-.175.175-.4.383-.664.6s-.563.5-.918.761a25.77,25.77,0,0,1-2.551,1.767,26.07,26.07,0,0,1-6.993,2.929,25.836,25.836,0,0,1-3.049.581c-.438.069-.835.088-1.185.12s-.65.046-.9.046a4.475,4.475,0,0,1-.766-.009,4.576,4.576,0,0,1,.761-.088c.244-.018.544-.042.89-.088s.743-.078,1.176-.152a28.654,28.654,0,0,0,3.017-.627,27.555,27.555,0,0,0,6.933-2.9,26.966,26.966,0,0,0,2.56-1.711c.36-.254.66-.512.932-.729s.5-.411.687-.572A5.991,5.991,0,0,1,243.016,191.79Z" transform="translate(-225.46 -191.789)"/></g><g transform="translate(37.363 23.88)"><path class="k" d="M238.817,158.95a.89.89,0,0,1-.042.254c-.042.189-.1.429-.161.72a11.268,11.268,0,0,1-.3,1.125c-.138.434-.272.936-.494,1.467-.1.268-.212.549-.323.84s-.258.581-.4.89c-.263.623-.618,1.25-.973,1.919a28.815,28.815,0,0,1-2.8,4.055,29.13,29.13,0,0,1-3.506,3.469c-.6.466-1.158.923-1.721,1.292-.281.189-.54.383-.807.544s-.526.314-.77.466c-.484.309-.955.526-1.356.738s-.761.374-1.056.5c-.277.115-.5.208-.678.286a.815.815,0,0,1-.244.083.968.968,0,0,1,.226-.129c.175-.088.392-.194.66-.323.291-.134.641-.3,1.033-.53s.858-.452,1.333-.766c.24-.152.494-.309.756-.475s.521-.364.793-.553c.558-.374,1.107-.83,1.7-1.3a30.121,30.121,0,0,0,3.464-3.45,30.632,30.632,0,0,0,2.8-4.008c.36-.66.715-1.282.987-1.9.138-.3.291-.59.406-.881s.226-.563.337-.83c.226-.521.374-1.019.521-1.444a10.9,10.9,0,0,0,.341-1.112c.083-.286.152-.521.2-.706A.833.833,0,0,1,238.817,158.95Z" transform="translate(-223.18 -158.95)"/></g><g transform="translate(30.78 48.277)"><path class="k" d="M211.677,218.086a2.707,2.707,0,0,1-.839-.627,6.486,6.486,0,0,1-1.425-2.094,6.4,6.4,0,0,1-.5-2.486,2.675,2.675,0,0,1,.143-1.038c.042,0,0,.4.028,1.033a7.314,7.314,0,0,0,.554,2.394,7.4,7.4,0,0,0,1.324,2.071C211.386,217.809,211.7,218.053,211.677,218.086Z" transform="translate(-208.909 -211.84)"/></g><g transform="translate(32.967 50.928)"><path class="k" d="M213.895,217.589c.069.018-.06.609.009,1.338s.281,1.292.217,1.319a2.077,2.077,0,0,1-.457-1.3A2.032,2.032,0,0,1,213.895,217.589Z" transform="translate(-213.65 -217.589)"/></g><g transform="translate(24.645 12.92)"><path class="k" d="M199.622,156.685a.741.741,0,0,1-.055-.217c-.032-.171-.069-.378-.115-.627-.1-.581-.231-1.365-.387-2.311-.323-1.951-.784-4.645-1.338-7.611s-1.1-5.646-1.5-7.583c-.194-.941-.351-1.716-.47-2.3-.046-.249-.088-.457-.12-.627a1.306,1.306,0,0,1-.028-.221.781.781,0,0,1,.074.212c.046.166.1.369.161.618.138.535.323,1.315.544,2.279.443,1.928,1.015,4.6,1.568,7.574s.987,5.669,1.268,7.629c.143.978.249,1.776.314,2.325.028.254.051.461.069.632A.7.7,0,0,1,199.622,156.685Z" transform="translate(-195.608 -135.19)"/></g><g transform="translate(58.127 12.007)"><path class="k" d="M268.248,155.618a.9.9,0,0,1-.023-.231c0-.175-.014-.392-.018-.655-.014-.567-.014-1.393-.009-2.408.018-2.034.106-4.843.341-7.943s.549-5.89.789-7.911c.125-.983.226-1.79.3-2.389.037-.258.069-.47.1-.646a.743.743,0,0,1,.051-.226.73.73,0,0,1,0,.231c-.014.175-.032.392-.051.655-.055.6-.134,1.411-.226,2.4-.2,2.025-.484,4.816-.715,7.911s-.351,5.9-.415,7.925c-.028.987-.051,1.8-.069,2.408-.009.263-.018.475-.028.655A.747.747,0,0,1,268.248,155.618Z" transform="translate(-268.194 -133.21)"/></g><g transform="translate(16.931 29.096)"><path class="k" d="M183.251,176.767c-.083.037-.687-1.647-1.864-3.473a26.5,26.5,0,0,0-2.5-3.035,4.317,4.317,0,0,1,.9.738,12.683,12.683,0,0,1,1.8,2.168,15.257,15.257,0,0,1,1.3,2.5A4.68,4.68,0,0,1,183.251,176.767Z" transform="translate(-178.886 -170.257)"/></g><g transform="translate(16.928 29.088)"><path class="k" d="M184.041,174.751a8.8,8.8,0,0,1-.517-.9,7.227,7.227,0,0,0-1.6-1.868,10.2,10.2,0,0,0-2.113-1.287,6.694,6.694,0,0,1-.936-.452,3.545,3.545,0,0,1,1,.3,8.24,8.24,0,0,1,2.2,1.255,6.249,6.249,0,0,1,1.591,1.97A3,3,0,0,1,184.041,174.751Z" transform="translate(-178.88 -170.24)"/></g><g transform="translate(18.851 16.449)"><path class="m" d="M191.038,148.9a.755.755,0,0,1-.1.2,2.2,2.2,0,0,1-.424.494,2.793,2.793,0,0,1-2.26.609,4.389,4.389,0,0,1-2.841-2.007,9.647,9.647,0,0,1-.936-1.864c-.129-.337-.258-.678-.369-1.038a2.84,2.84,0,0,1-.129-1.158,1.59,1.59,0,0,1,.563-1.047,1.335,1.335,0,0,1,1.139-.2,2.232,2.232,0,0,1,1.518,1.439,2.165,2.165,0,0,1-.189,1.887,2.355,2.355,0,0,1-1.315,1.01,2.09,2.09,0,0,1-1.365-.065,2.289,2.289,0,0,1-.853-.581,2.15,2.15,0,0,1-.36-.54.641.641,0,0,1-.069-.217,3.275,3.275,0,0,0,.494.692,2.232,2.232,0,0,0,.835.517,1.971,1.971,0,0,0,1.268.028,2.182,2.182,0,0,0,1.195-.95,1.977,1.977,0,0,0,.152-1.707,2.012,2.012,0,0,0-1.365-1.287,1.1,1.1,0,0,0-.941.166,1.345,1.345,0,0,0-.471.89,4.786,4.786,0,0,0,.48,2.08,9.483,9.483,0,0,0,.9,1.827,4.235,4.235,0,0,0,2.685,1.96,2.766,2.766,0,0,0,2.173-.512A3.468,3.468,0,0,0,191.038,148.9Z" transform="translate(-183.048 -142.841)"/></g><g transform="translate(26.057 12.086)"><path class="m" d="M217.591,150.885s-.042.042-.125.111-.226.175-.387.3a9.855,9.855,0,0,1-1.587,1,4.72,4.72,0,0,1-1.292.429,3.388,3.388,0,0,1-1.619-.106,5.72,5.72,0,0,1-2.924-2.574,9.39,9.39,0,0,1,.088-9.8,5.087,5.087,0,0,1,2.173-2.03,2.833,2.833,0,0,1,1.554-.2,2.14,2.14,0,0,1,1.393.789,2.243,2.243,0,0,1,.434,1.568,3.643,3.643,0,0,1-.5,1.568,5.126,5.126,0,0,1-2.565,2.08,6.6,6.6,0,0,1-3.293.341,6.8,6.8,0,0,1-2.971-1.232,10.134,10.134,0,0,1-3.487-4.889,5.886,5.886,0,0,1-.424-2.8,2.8,2.8,0,0,1,.535-1.273,1.985,1.985,0,0,1,1.126-.733,2.465,2.465,0,0,1,2.325.8,2.64,2.64,0,0,1,.563,2.21,3.532,3.532,0,0,1-.946,1.863,4.485,4.485,0,0,1-1.559,1.019,7.177,7.177,0,0,1-2.929.443,16.9,16.9,0,0,1-1.864-.189c-.2-.032-.36-.06-.48-.078a.694.694,0,0,1-.161-.037.9.9,0,0,1,.166.009l.484.055c.424.046,1.052.125,1.859.143a7.128,7.128,0,0,0,2.878-.475,4.336,4.336,0,0,0,1.5-1.006,3.388,3.388,0,0,0,.89-1.785,2.474,2.474,0,0,0-.53-2.062,2.287,2.287,0,0,0-2.14-.733,2.135,2.135,0,0,0-1.5,1.85,5.724,5.724,0,0,0,.424,2.694,9.943,9.943,0,0,0,3.418,4.774,6.565,6.565,0,0,0,2.869,1.186,6.364,6.364,0,0,0,3.169-.328,4.892,4.892,0,0,0,2.445-1.974,3.411,3.411,0,0,0,.47-1.467,2.02,2.02,0,0,0-.383-1.411,1.89,1.89,0,0,0-1.245-.7,2.609,2.609,0,0,0-1.43.18,4.87,4.87,0,0,0-2.076,1.937,9.22,9.22,0,0,0-.125,9.594,5.584,5.584,0,0,0,2.818,2.532,3.814,3.814,0,0,0,2.832-.281,11.305,11.305,0,0,0,1.6-.955c.166-.115.3-.208.4-.277A.673.673,0,0,1,217.591,150.885Z" transform="translate(-198.67 -133.38)"/></g><g transform="translate(23.077 3.708)"><path class="m" d="M201.385,115.219a1.367,1.367,0,0,1-.148.415,6.809,6.809,0,0,1-.59,1.038,7.6,7.6,0,0,1-6.841,3.266,6.779,6.779,0,0,1-1.181-.194,1.463,1.463,0,0,1-.415-.148c.009-.042.609.134,1.6.171a7.921,7.921,0,0,0,6.688-3.192C201.1,115.777,201.343,115.2,201.385,115.219Z" transform="translate(-192.21 -115.219)"/></g><g transform="translate(36.906 5.627)"><path class="m" d="M224.348,119.421a4.233,4.233,0,0,0-1.3.637,4.012,4.012,0,0,0-.839,1.181c-.028,0-.037-.185.055-.457A2.154,2.154,0,0,1,223.9,119.4C224.173,119.357,224.348,119.394,224.348,119.421Z" transform="translate(-222.189 -119.38)"/></g><g transform="translate(46.143 4.253)"><path class="m" d="M244.892,120.528a1.08,1.08,0,0,1-.392-.18,3.194,3.194,0,0,1-.867-.8,3.15,3.15,0,0,1-.641-1.638,1.582,1.582,0,0,1,.281-1.038,1.067,1.067,0,0,1,1.07-.452,1.186,1.186,0,0,1,.84.807,1.114,1.114,0,0,1-.212,1.061,1.494,1.494,0,0,1-1.67.443,1.907,1.907,0,0,1-.913-.756c-.152-.24-.185-.392-.171-.4a4.12,4.12,0,0,1,.249.341,1.924,1.924,0,0,0,.89.65,1.326,1.326,0,0,0,1.444-.42.89.89,0,0,0,.161-.849.972.972,0,0,0-.664-.646.845.845,0,0,0-.83.36,1.328,1.328,0,0,0-.249.886,3.048,3.048,0,0,0,.558,1.545A4.69,4.69,0,0,0,244.892,120.528Z" transform="translate(-242.214 -116.4)"/></g><g transform="translate(47.308 1.478)"><path class="m" d="M248.093,111.9a4.263,4.263,0,0,0-3.353-1.375c0-.028.2-.111.558-.138a3.136,3.136,0,0,1,2.5,1.029C248.029,111.683,248.116,111.891,248.093,111.9Z" transform="translate(-244.74 -110.385)"/></g><g transform="translate(45.853 4.589)"><path class="m" d="M259.075,120.906a.314.314,0,0,1-.092.055c-.074.042-.166.088-.277.143-.249.12-.618.291-1.107.47a13.406,13.406,0,0,1-4.345.816,6.349,6.349,0,0,1-1.476-.143,3.224,3.224,0,0,1-1.453-.71,2.166,2.166,0,0,1-.715-1.578,2.663,2.663,0,0,1,.613-1.734,3.567,3.567,0,0,1,3.672-.946,4.274,4.274,0,0,1,2.943,2.851,4.2,4.2,0,0,1-.881,4,6.439,6.439,0,0,1-3.418,1.836,19.937,19.937,0,0,1-3.5.355,19.732,19.732,0,0,0-3.021.3,6.12,6.12,0,0,0-3.718,2.122,4.618,4.618,0,0,0-.71,1.435.311.311,0,0,1,.014-.106c.018-.069.032-.175.074-.3a3.7,3.7,0,0,1,.544-1.079,6.139,6.139,0,0,1,3.759-2.233,18.943,18.943,0,0,1,3.044-.328,19.677,19.677,0,0,0,3.46-.369,6.25,6.25,0,0,0,3.289-1.781,3.974,3.974,0,0,0,.826-3.773,4.056,4.056,0,0,0-2.777-2.694,3.358,3.358,0,0,0-3.441.858,2.451,2.451,0,0,0-.572,1.587,1.947,1.947,0,0,0,.637,1.435,3,3,0,0,0,1.361.673,6.16,6.16,0,0,0,1.43.152,13.975,13.975,0,0,0,4.317-.733c.494-.166.867-.323,1.121-.429S259.075,120.9,259.075,120.906Z" transform="translate(-241.586 -117.127)"/></g><g transform="translate(45.43 23.479)"><path class="m" d="M247.077,161.083c-.037.018-.2-.387-.618-.927a4.952,4.952,0,0,0-2.1-1.564,4.885,4.885,0,0,0-2.611-.208c-.673.129-1.061.328-1.075.291a2.53,2.53,0,0,1,1.042-.457,4.566,4.566,0,0,1,4.889,1.841A2.5,2.5,0,0,1,247.077,161.083Z" transform="translate(-240.669 -158.08)"/></g><g transform="translate(50.766 29.967)"><path class="m" d="M258.7,172.148a2.215,2.215,0,0,1-.632.932,3.857,3.857,0,0,1-5.056.4,2.3,2.3,0,0,1-.77-.821c.032-.028.3.314.867.683a3.94,3.94,0,0,0,4.848-.383C258.452,172.5,258.66,172.121,258.7,172.148Z" transform="translate(-252.238 -172.147)"/></g><g transform="translate(53.813 20.185)"><path class="m" d="M263.656,151.544c-.018.032-.3-.134-.789-.263a3.377,3.377,0,0,0-3.533,1.13c-.323.392-.452.687-.489.673a1.633,1.633,0,0,1,.355-.775,3.241,3.241,0,0,1,3.718-1.19A1.643,1.643,0,0,1,263.656,151.544Z" transform="translate(-258.842 -150.94)"/></g><g transform="translate(62.903 15.776)"><path class="m" d="M291.461,142.15a1.8,1.8,0,0,1,.083.341,2.749,2.749,0,0,1,.06.424,3.367,3.367,0,0,1,.018.586,5.821,5.821,0,0,1-1.324,3.436,6.016,6.016,0,0,1-4.871,2.3A7.764,7.764,0,0,1,279.5,146.3a4.687,4.687,0,0,1-.835-1.6,3.015,3.015,0,0,1,.032-1.762,2.225,2.225,0,0,1,1.079-1.315,2.49,2.49,0,0,1,1.624-.194,2.733,2.733,0,0,1,1.37.729,3.114,3.114,0,0,1,.752,1.25,4.176,4.176,0,0,1-.023,2.574,4.874,4.874,0,0,1-1.089,1.827,5.08,5.08,0,0,1-1.268.982,4.779,4.779,0,0,1-.941.374,1.784,1.784,0,0,1-.346.065,6.746,6.746,0,0,0,1.241-.521,4.985,4.985,0,0,0,2.242-2.777,4.063,4.063,0,0,0,0-2.459,2.991,2.991,0,0,0-.71-1.162,2.511,2.511,0,0,0-1.269-.66,2.262,2.262,0,0,0-1.471.18,2.013,2.013,0,0,0-.959,1.185,2.779,2.779,0,0,0-.023,1.624,4.339,4.339,0,0,0,.793,1.513,7.581,7.581,0,0,0,5.738,2.86,5.874,5.874,0,0,0,4.737-2.186,5.868,5.868,0,0,0,1.361-3.335A9.582,9.582,0,0,0,291.461,142.15Z" transform="translate(-278.549 -141.38)"/></g><g transform="translate(78.463 16.301)"><path class="m" d="M313.19,152.317a1.2,1.2,0,0,1-.281-.318,3.313,3.313,0,0,1-.5-1.042,4.275,4.275,0,0,1-.069-1.721,15.879,15.879,0,0,1,.466-2.034,14.368,14.368,0,0,1,1.651-3.4c.258-.406.48-.733.637-.95s.249-.337.263-.327a11.442,11.442,0,0,1-.752,1.37,17.325,17.325,0,0,0-1.568,3.386,18.534,18.534,0,0,0-.48,2,4.443,4.443,0,0,0,.014,1.647A6.274,6.274,0,0,0,313.19,152.317Z" transform="translate(-312.283 -142.519)"/></g><g transform="translate(86.237 15.485)"><path class="m" d="M331.006,140.75a1.056,1.056,0,0,1,.138.332,5.706,5.706,0,0,1,.231.95,8.515,8.515,0,0,1-1.361,6.167,6,6,0,0,1-.609.761c-.161.166-.254.254-.268.24-.032-.028.3-.406.733-1.1a9.366,9.366,0,0,0,1.333-6.047C331.112,141.248,330.964,140.764,331.006,140.75Z" transform="translate(-329.135 -140.75)"/></g><g transform="translate(46.436 35.541)"><path class="m" d="M254.335,185.747a.912.912,0,0,1-.2-.1,5.342,5.342,0,0,0-.563-.3,6.644,6.644,0,0,0-2.246-.632,6.825,6.825,0,0,0-3.386.544,5.906,5.906,0,0,0-1.693,1.121,3.4,3.4,0,0,0-.664.826,1.678,1.678,0,0,0-.231,1.015,1.211,1.211,0,0,0,.494.867.975.975,0,0,0,.941.042,1.649,1.649,0,0,0,.858-1.619,3.272,3.272,0,0,0-1.711-2.772,3.389,3.389,0,0,0-2.26-.3,6.777,6.777,0,0,0-.821.268.822.822,0,0,1,.189-.125,2.945,2.945,0,0,1,.609-.235,3.374,3.374,0,0,1,2.357.24,3.436,3.436,0,0,1,1.854,2.92,2.378,2.378,0,0,1-.194,1.042,1.556,1.556,0,0,1-.784.8,1.224,1.224,0,0,1-1.167-.06,1.429,1.429,0,0,1-.6-1.038,1.885,1.885,0,0,1,.263-1.158,3.6,3.6,0,0,1,.715-.876,6.067,6.067,0,0,1,1.767-1.153,6.855,6.855,0,0,1,3.5-.507,6.335,6.335,0,0,1,2.274.715,3.61,3.61,0,0,1,.549.351C254.285,185.687,254.345,185.738,254.335,185.747Z" transform="translate(-242.85 -184.23)"/></g><g transform="translate(58.269 40.871)"><path class="m" d="M269.826,195.787a3.042,3.042,0,0,1-.558,1.061c-.364.549-.7.964-.757.927a3.043,3.043,0,0,1,.558-1.061C269.434,196.166,269.77,195.75,269.826,195.787Z" transform="translate(-268.503 -195.785)"/></g><g transform="translate(62.834 45.85)"><path class="m" d="M281.015,208.2c-.037.009-.1-.166-.263-.4a2.387,2.387,0,0,0-1.873-1.042c-.286-.009-.471.028-.48-.009s.161-.124.475-.161a2.1,2.1,0,0,1,2.03,1.126C281.034,208,281.043,208.2,281.015,208.2Z" transform="translate(-278.399 -206.578)"/></g><g transform="translate(39.969 45.123)"><path class="m" d="M235.255,205.006c.018.032-.553.318-1.444.826a12.4,12.4,0,0,0-3.137,2.426,6.667,6.667,0,0,0-1.661,3.524,7.938,7.938,0,0,0,.028,1.647,1.28,1.28,0,0,1-.134-.434,4.58,4.58,0,0,1-.065-1.232A6.451,6.451,0,0,1,230.5,208.1a11.2,11.2,0,0,1,3.233-2.412c.457-.24.84-.411,1.1-.526A1.405,1.405,0,0,1,235.255,205.006Z" transform="translate(-228.83 -205.002)"/></g><g transform="translate(52.274 42.914)"><path class="m" d="M256.4,204.677c-.014.018-.258-.152-.5-.554a3.085,3.085,0,0,1,.291-3.446c.309-.355.577-.484.586-.461.028.032-.2.208-.452.567a3.31,3.31,0,0,0-.272,3.261C256.242,204.438,256.435,204.65,256.4,204.677Z" transform="translate(-255.507 -200.214)"/></g><g transform="translate(27.986 37.766)"><path class="m" d="M217.446,190.306c-.009.009-.083-.106-.263-.268a1.961,1.961,0,0,0-.959-.429,2.4,2.4,0,0,0-1.61.337,4.877,4.877,0,0,0-1.527,1.614c-.457.7-.844,1.545-1.425,2.366a5.011,5.011,0,0,1-2.542,1.9,4.7,4.7,0,0,1-3.492-.2,5,5,0,0,1-2.569-2.735,3,3,0,0,1-.078-1.947,2.737,2.737,0,0,1,1.195-1.467,2.81,2.81,0,0,1,1.781-.406,2.954,2.954,0,0,1,1.582.752,3.863,3.863,0,0,1,1.25,2.9,4.783,4.783,0,0,1-.863,2.634,5.368,5.368,0,0,1-1.67,1.568,6.52,6.52,0,0,1-1.582.687,6.994,6.994,0,0,1-1.066.226c-.125.018-.217.023-.281.028s-.1,0-.1,0a2.658,2.658,0,0,1,.369-.078,8.744,8.744,0,0,0,1.047-.268,6.658,6.658,0,0,0,1.541-.715,5.217,5.217,0,0,0,1.6-1.55,4.632,4.632,0,0,0,.8-2.542,3.686,3.686,0,0,0-1.2-2.735,2.707,2.707,0,0,0-1.462-.692,2.59,2.59,0,0,0-1.633.383,2.484,2.484,0,0,0-1.093,1.342,2.747,2.747,0,0,0,.078,1.79,4.782,4.782,0,0,0,2.44,2.606,4.5,4.5,0,0,0,3.321.208,4.829,4.829,0,0,0,2.449-1.808c.577-.793.973-1.633,1.444-2.343a4.994,4.994,0,0,1,1.6-1.637,2.506,2.506,0,0,1,1.693-.314,1.89,1.89,0,0,1,.978.484A1.158,1.158,0,0,1,217.446,190.306Z" transform="translate(-202.852 -189.053)"/></g><g transform="translate(40.64 40.435)"><path class="m" d="M232.376,200.61a2.25,2.25,0,0,1-.743-.59,5.08,5.08,0,0,1-1.278-4.281,2.211,2.211,0,0,1,.3-.9,8.988,8.988,0,0,1-.134.923,5.625,5.625,0,0,0,1.236,4.147C232.123,200.352,232.4,200.578,232.376,200.61Z" transform="translate(-230.284 -194.84)"/></g><g transform="translate(28.105 30.113)"><path class="m" d="M219.434,177.922c-.014.023-.328-.157-.927-.392a11.084,11.084,0,0,0-6.642-.5,9.051,9.051,0,0,0-2.214.83,1.488,1.488,0,0,0-.733.876.831.831,0,0,0,.475.927.488.488,0,0,0,.484-.148,1.243,1.243,0,0,0,.277-.517,4.377,4.377,0,0,0,.106-1.227,5.491,5.491,0,0,0-.59-2.265,5.3,5.3,0,0,0-1.3-1.674,5.1,5.1,0,0,0-1.605-.923,5.668,5.668,0,0,0-2.675-.268c-.637.1-.969.24-.978.217a.842.842,0,0,1,.24-.106,4.71,4.71,0,0,1,.724-.2,5.446,5.446,0,0,1,2.745.2,5.31,5.31,0,0,1,1.679.932,5.4,5.4,0,0,1,1.37,1.725,5.672,5.672,0,0,1,.627,2.352,4.325,4.325,0,0,1-.111,1.3,1.458,1.458,0,0,1-.337.618.737.737,0,0,1-.72.208.906.906,0,0,1-.549-.5,1.177,1.177,0,0,1-.1-.71,1.7,1.7,0,0,1,.844-1.033,9.055,9.055,0,0,1,2.283-.844,10.922,10.922,0,0,1,4.087-.148,10.318,10.318,0,0,1,2.648.775,6.7,6.7,0,0,1,.669.337A1.165,1.165,0,0,1,219.434,177.922Z" transform="translate(-203.11 -172.462)"/></g><g transform="translate(4.441 24.757)"><path class="m" d="M155.85,172.991c-.014-.018.286-.221.743-.683a6.407,6.407,0,0,0,1.448-2.288,5.01,5.01,0,0,0-.115-3.9,4.938,4.938,0,0,0-1.471-1.817,4.14,4.14,0,0,0-2.325-.872,2.694,2.694,0,0,0-1.222.254,1.535,1.535,0,0,0-.812.821,1.182,1.182,0,0,0,.166,1.07,1.751,1.751,0,0,0,.876.65,2.379,2.379,0,0,0,2-.341,3.394,3.394,0,0,0,1.213-1.375,6.9,6.9,0,0,0,.577-2.648c.014-.3.023-.549.032-.747a.921.921,0,0,1,.023-.263,1.006,1.006,0,0,1,.028.263c.009.171.018.424.014.752a6.689,6.689,0,0,1-.517,2.721,3.521,3.521,0,0,1-1.255,1.467,2.582,2.582,0,0,1-2.173.383,1.973,1.973,0,0,1-1-.729,1.408,1.408,0,0,1-.2-1.278,1.781,1.781,0,0,1,.927-.959,2.925,2.925,0,0,1,1.333-.281,4.362,4.362,0,0,1,2.459.923,5.169,5.169,0,0,1,1.531,1.91,4.808,4.808,0,0,1,.457,2.168,5.7,5.7,0,0,1-.378,1.891,6.185,6.185,0,0,1-1.545,2.3,5.272,5.272,0,0,1-.581.48A.954.954,0,0,1,155.85,172.991Z" transform="translate(-151.808 -160.85)"/></g><g transform="translate(15.879 31.735)"><path class="m" d="M178.77,188a1.848,1.848,0,0,1-.36-.383,7.36,7.36,0,0,1-.789-1.2,8.512,8.512,0,0,1,.6-9.027,7.32,7.32,0,0,1,.941-1.084,2.093,2.093,0,0,1,.406-.332,18.094,18.094,0,0,0-1.209,1.513,8.765,8.765,0,0,0-.581,8.856A17.791,17.791,0,0,0,178.77,188Z" transform="translate(-176.603 -175.979)"/></g><g transform="translate(17.072 26.996)"><path class="m" d="M189.177,172.437c-.042.014-.235-.7-.807-1.711a9.473,9.473,0,0,0-7.288-4.825c-1.162-.129-1.887-.028-1.891-.074a2.014,2.014,0,0,1,.507-.088,8.025,8.025,0,0,1,1.4-.009,9.127,9.127,0,0,1,7.422,4.913,8.022,8.022,0,0,1,.54,1.292A1.889,1.889,0,0,1,189.177,172.437Z" transform="translate(-179.19 -165.705)"/></g><g class="g" transform="translate(39.348 40.449)"><path d="M227.8,201.06c-.438.189-.4.89-.028,1.195a1.968,1.968,0,0,0,1.37.291,17.813,17.813,0,0,0,13.667-7.676c-4.17,3.423-9.641,4.714-14.9,5.9" transform="translate(-227.484 -194.87)"/></g><g class="g" transform="translate(38.622 27.229)"><path d="M226.126,180.915a1.893,1.893,0,0,1,.438-2.26,7.63,7.63,0,0,1,2.131-1.268A13.469,13.469,0,0,0,234.913,171c.84-1.817,1.476-4.045,3.33-4.793a18.01,18.01,0,0,1-11.859,14.143" transform="translate(-225.909 -166.21)"/></g><g class="g" transform="translate(24.165 18.017)"><path d="M196.147,146.24a46.809,46.809,0,0,1-1.061,15.074,12.92,12.92,0,0,0-.517,3.178,4.229,4.229,0,0,0,1.536,2.984,21.746,21.746,0,0,0,1.1-5.365c.291-1.716.78-5.711.78-5.77a22.549,22.549,0,0,0-2.1-9.645" transform="translate(-194.568 -146.24)"/></g><g class="g" transform="translate(34.194 2.8)"><path d="M216.554,113.324a18.382,18.382,0,0,0,5.222,9.8,5.4,5.4,0,0,0,3.713,1.868,8.672,8.672,0,0,1-.71-5.438,22.468,22.468,0,0,0,3.8,2.066,7.583,7.583,0,0,0,4.244.484l.886-7.666a1.428,1.428,0,0,0-.078-.858c-.143-.254-.53-.387-.729-.175a.713.713,0,0,0-.143.337c-.521,2.242-.807,4.244-1.329,6.485-.374.369-1.522.217-2.279-.06-.66-.244-.913-.789-1.347-1.338s-.36-.452-1.006-.729c-1.19-.5-3.473-.1-3.972.964a5.162,5.162,0,0,0,.212,3.524,15.987,15.987,0,0,1-6.73-9.336" transform="translate(-216.31 -113.25)"/></g><g class="g" transform="translate(58.623 13.695)"><path d="M270.239,136.87c-.092.184,2.874,10.185,2.874,10.185l-3.842-2.191Z" transform="translate(-269.27 -136.87)"/></g></g></g><g transform="translate(43.655)"><g transform="translate(1.809 1.797)"><path class="h" d="M219.61,64.3V80.225a3.866,3.866,0,0,0,.909,2.486h0a11.7,11.7,0,0,0,3.2,2.648l3.21,1.808,2.657-2.371a3.871,3.871,0,0,0,1.287-2.731c.046-1.158.046-2.329.046-2.329s4.5-.323,4.922-4.76c.2-2.09.263-6.37.272-10.314a8.633,8.633,0,0,0-7.925-8.626l-.125-.009A8.244,8.244,0,0,0,219.61,64.3Z" transform="translate(-219.61 -56.024)"/><g transform="translate(5.66 21.521)"><path class="i" d="M237.521,104.871a10.772,10.772,0,0,1-5.641-2.191s1.162,3.367,5.632,3.335Z" transform="translate(-231.88 -102.68)"/></g></g><g transform="translate(7.706 8.501)"><g transform="translate(0.246 2.522)"><g transform="translate(6.721 0.429)"><g transform="translate(1.048 1.206)"><path class="k" d="M251.042,80.2a.636.636,0,0,1-.664.59.612.612,0,0,1-.609-.627.636.636,0,0,1,.664-.59A.606.606,0,0,1,251.042,80.2Z" transform="translate(-249.769 -79.569)"/></g><path class="k" d="M250,77.728c-.088.078-.535-.318-1.218-.374s-1.213.244-1.278.157c-.032-.042.06-.185.291-.323a1.765,1.765,0,0,1,1.033-.226,1.669,1.669,0,0,1,.964.4C249.984,77.539,250.04,77.691,250,77.728Z" transform="translate(-247.496 -76.956)"/></g><g transform="translate(1.33 1.312)"><path class="k" d="M237.083,79.5a.636.636,0,0,1-.664.59.612.612,0,0,1-.609-.627.636.636,0,0,1,.664-.59A.609.609,0,0,1,237.083,79.5Z" transform="translate(-235.809 -78.869)"/></g><path class="k" d="M235.428,76.8c-.088.078-.54-.318-1.218-.374s-1.213.244-1.278.157c-.032-.042.06-.185.291-.323a1.765,1.765,0,0,1,1.033-.226,1.7,1.7,0,0,1,.964.4C235.41,76.609,235.47,76.761,235.428,76.8Z" transform="translate(-232.926 -76.026)"/><g transform="translate(4.559 0.325)"><path class="k" d="M242.81,82.445a4.528,4.528,0,0,1,1.125-.106c.175,0,.346-.023.383-.143a.88.88,0,0,0-.074-.526c-.129-.434-.263-.89-.406-1.37a23.235,23.235,0,0,1-.872-3.57,23.189,23.189,0,0,1,1.158,3.492c.134.48.263.936.383,1.375a1.006,1.006,0,0,1,.032.692.441.441,0,0,1-.309.231,1.408,1.408,0,0,1-.3.018A4.739,4.739,0,0,1,242.81,82.445Z" transform="translate(-242.81 -76.729)"/></g><g transform="translate(2.368 6.344)"><path class="k" d="M238.2,89.78c.111,0,.051.743.641,1.324s1.388.563,1.384.664c0,.046-.189.129-.521.111a1.834,1.834,0,0,1-1.158-.517,1.611,1.611,0,0,1-.489-1.107C238.055,89.95,238.152,89.77,238.2,89.78Z" transform="translate(-238.06 -89.779)"/></g></g><path class="k" d="M235.538,71.191c-.083.18-.757.037-1.568.065s-1.476.194-1.568.018c-.042-.083.088-.249.364-.406a2.616,2.616,0,0,1,1.185-.309,2.581,2.581,0,0,1,1.2.244C235.441,70.946,235.575,71.1,235.538,71.191Z" transform="translate(-232.394 -70.558)"/><g transform="translate(7.069 0.916)"><path class="k" d="M250.03,73.354c-.134.143-.59-.055-1.153-.111-.563-.074-1.052.018-1.149-.152-.042-.083.046-.231.268-.36a1.679,1.679,0,0,1,1.854.212C250.039,73.114,250.09,73.28,250.03,73.354Z" transform="translate(-247.718 -72.544)"/></g></g><g transform="translate(1.113 2.653)"><path class="k" d="M224.023,60.828a.1.1,0,0,0-.028.018A3.5,3.5,0,0,0,222.51,63a.753.753,0,0,0-.018.088c-.277,1.255-.355,2.546-.646,3.8s-.235,2.2-1.49,2.486a1.664,1.664,0,0,1-1.744-.71,1.078,1.078,0,0,1-.111-.6c.018-3.081-.6-4.276-.332-7.473a2.7,2.7,0,0,1,1.3-2.1c.71-.424,1.568-.853,2.283-.443a12.6,12.6,0,0,1,2.094,2.528" transform="translate(-218.101 -57.88)"/></g><g transform="translate(0 11.975)"><path class="h" d="M218.826,78.32c-.074-.037-2.98-1.158-3.132,1.891a2.292,2.292,0,0,0,2.943,2.486C218.65,82.61,218.826,78.32,218.826,78.32Z" transform="translate(-215.688 -78.089)"/><g transform="translate(0.775 0.96)"><path class="i" d="M218.675,82.614c-.014-.009-.055.032-.148.069a.517.517,0,0,1-.4-.014,1.318,1.318,0,0,1-.549-1.209,1.709,1.709,0,0,1,.189-.752.631.631,0,0,1,.42-.387.271.271,0,0,1,.3.161c.037.088.014.148.028.152s.069-.046.051-.175a.349.349,0,0,0-.111-.2.4.4,0,0,0-.291-.092.742.742,0,0,0-.577.443,1.762,1.762,0,0,0-.226.84,1.381,1.381,0,0,0,.706,1.356.585.585,0,0,0,.489-.055C218.666,82.688,218.684,82.623,218.675,82.614Z" transform="translate(-217.369 -80.169)"/></g></g><g transform="translate(4.41)"><path class="k" d="M225.466,55.409c-.646-1.278,1.545-2.851,3.086-3.2s3.455.544,4.9,1.162a8.253,8.253,0,0,0,2.814.946,6.675,6.675,0,0,0,1.965-.332,4.888,4.888,0,0,1,1.974-.221,1.833,1.833,0,0,1,1.513,1.144,1.149,1.149,0,0,1-.895,1.485,1.5,1.5,0,1,1,.171,2.8c.461-.291,1.075.3.978.84A1.58,1.58,0,0,1,240.84,61.1a5.705,5.705,0,0,1-4.05-.4c-1.273-.549-2.436-1.338-3.695-1.919s-3.367-1.61-4.71-1.259c-.987.258-1.753,1.361-2.274,1.061a1.874,1.874,0,0,1-.849-1.444,5.372,5.372,0,0,1,.2-1.73" transform="translate(-225.248 -52.129)"/></g><g transform="translate(5.296 0.856)"><path class="l" d="M242.235,57.345c-.023-.018-.175.212-.53.54a4.187,4.187,0,0,1-1.776.946,3.866,3.866,0,0,1-2.888-.355,13.688,13.688,0,0,1-2.749-2.5,6.311,6.311,0,0,0-3.28-1.923,3.513,3.513,0,0,0-2.989.766,2.665,2.665,0,0,0-.853,1.905,2.118,2.118,0,0,0,.083.567q.069.187.083.18a4.584,4.584,0,0,1-.051-.747,2.612,2.612,0,0,1,.876-1.753,3.325,3.325,0,0,1,2.8-.65,6.148,6.148,0,0,1,3.114,1.864A13.261,13.261,0,0,0,236.9,58.71a4.142,4.142,0,0,0,4.88-.752,2.654,2.654,0,0,0,.355-.447C242.212,57.41,242.244,57.35,242.235,57.345Z" transform="translate(-227.17 -53.984)"/></g><g transform="translate(1.827 4.209)"><path class="l" d="M220.2,69.057c.009.009.138-.074.272-.3a2.086,2.086,0,0,0,.244-1.089c.014-.982-.766-2.108-.761-3.469a3.047,3.047,0,0,1,.484-1.785,2.329,2.329,0,0,1,1.209-.881,2,2,0,0,1,1.024-.055c.24.06.369.125.383.1s-.1-.115-.346-.217a1.862,1.862,0,0,0-1.116-.037,2.454,2.454,0,0,0-1.379.927,3.275,3.275,0,0,0-.563,1.951,5.536,5.536,0,0,0,.429,1.965,5.7,5.7,0,0,1,.424,1.513A2.36,2.36,0,0,1,220.2,69.057Z" transform="translate(-219.649 -61.254)"/></g></g></g><g transform="translate(56.669 78.121)"><g transform="translate(0 16.345)"><g transform="translate(10.065 38.319)"><path class="d" d="M170.126,268.879s-.231.009-.687.018-1.13.014-2.016.028c-1.771.028-4.382.1-7.74.258s-7.463.47-12.21,1.01c-2.371.286-4.9.609-7.574,1.056-2.675.429-5.489.959-8.418,1.628s-5.978,1.462-9.1,2.482a60.5,60.5,0,0,0-9.433,3.893,31.091,31.091,0,0,0-4.525,2.888,14.4,14.4,0,0,0-3.7,4.05c-.111.2-.235.406-.341.614l-.263.65-.129.327c-.037.111-.055.226-.088.341l-.166.687a6.9,6.9,0,0,0,.138,2.814,10.32,10.32,0,0,0,3.1,4.839,34.124,34.124,0,0,0,10.4,6.19,85.507,85.507,0,0,0,12.118,3.833,159,159,0,0,0,26.449,3.893,210.885,210.885,0,0,0,26.758.106,168.155,168.155,0,0,0,24.706-3.224,104.278,104.278,0,0,0,11.2-3.021,55.619,55.619,0,0,0,10.014-4.364,27.3,27.3,0,0,0,4.221-3.007,12.266,12.266,0,0,0,3.058-3.893l.226-.563a2.841,2.841,0,0,0,.194-.567l.143-.581c.023-.1.051-.194.065-.291l.023-.3a5.8,5.8,0,0,0-.175-2.325,8.173,8.173,0,0,0-.973-2.08,12.543,12.543,0,0,0-1.43-1.753,21.458,21.458,0,0,0-3.377-2.781,36.227,36.227,0,0,0-3.579-2.136,61.987,61.987,0,0,0-6.979-3.1,104.7,104.7,0,0,0-11.7-3.607c-3.261-.816-5.821-1.329-7.56-1.661-.867-.175-1.536-.286-1.979-.369s-.673-.129-.673-.129.918.134,2.662.452,4.308.816,7.574,1.619a103.45,103.45,0,0,1,11.721,3.57,61.66,61.66,0,0,1,7,3.1,35.585,35.585,0,0,1,3.6,2.136,21.718,21.718,0,0,1,3.409,2.8,12.964,12.964,0,0,1,1.453,1.776,8.434,8.434,0,0,1,1,2.131,5.978,5.978,0,0,1,.184,2.394l-.023.3c-.014.1-.046.2-.065.3l-.143.6a3.2,3.2,0,0,1-.2.581l-.231.577a12.423,12.423,0,0,1-3.1,3.958,27.523,27.523,0,0,1-4.248,3.035,56.157,56.157,0,0,1-10.046,4.391,103.963,103.963,0,0,1-11.223,3.035,168.57,168.57,0,0,1-24.738,3.243,209.669,209.669,0,0,1-26.791-.1,159.1,159.1,0,0,1-26.486-3.907,85.512,85.512,0,0,1-12.145-3.847,34.266,34.266,0,0,1-10.466-6.241,10.535,10.535,0,0,1-3.155-4.945,7.083,7.083,0,0,1-.138-2.9l.171-.706c.032-.115.051-.235.088-.351l.134-.337.268-.669c.111-.212.231-.415.346-.623a14.714,14.714,0,0,1,3.759-4.11,30.961,30.961,0,0,1,4.557-2.9,61,61,0,0,1,9.465-3.893c3.127-1.015,6.181-1.808,9.115-2.468s5.752-1.19,8.427-1.61c2.675-.438,5.212-.756,7.583-1.038,4.751-.53,8.861-.812,12.219-.973s5.973-.2,7.745-.217c.881,0,1.559,0,2.016,0S170.126,268.879,170.126,268.879Z" transform="translate(-103.448 -268.878)"/></g><path class="d" d="M120.675,189.175s-.263.06-.775.161-1.278.244-2.279.461c-2,.415-4.949,1.056-8.69,2.08a89.882,89.882,0,0,0-13.317,4.7c-1.25.577-2.532,1.2-3.81,1.933a36.318,36.318,0,0,0-3.824,2.454,21,21,0,0,0-3.529,3.243,11.155,11.155,0,0,0-2.394,4.387,8.083,8.083,0,0,0,.378,5.166,13.376,13.376,0,0,0,3.192,4.465,35.872,35.872,0,0,0,9.885,6.31,109.266,109.266,0,0,0,24.918,7.33,209.844,209.844,0,0,0,28.59,3.155,246.566,246.566,0,0,0,30.877-.549,178.52,178.52,0,0,0,30.467-4.963,91.006,91.006,0,0,0,13.875-4.765,47.265,47.265,0,0,0,6.269-3.344,23.832,23.832,0,0,0,5.282-4.456,10,10,0,0,0,2.62-6.057,5.49,5.49,0,0,0-.028-.826,5.32,5.32,0,0,0-.088-.816l-.18-.8a5.68,5.68,0,0,0-.263-.775,11.646,11.646,0,0,0-1.582-2.828,21.615,21.615,0,0,0-4.677-4.322,42.861,42.861,0,0,0-5.355-3.132,75.983,75.983,0,0,0-10.969-4.308c-3.612-1.13-7.14-2.025-10.526-2.777a203.226,203.226,0,0,0-32.57-4.156c-3.875-.2-6.891-.208-8.935-.263-1.019-.023-1.8-.042-2.325-.051s-.793-.028-.793-.028.268,0,.793,0,1.305.014,2.325.028c2.043.037,5.06.028,8.939.217a200.525,200.525,0,0,1,32.6,4.082c3.39.747,6.924,1.638,10.545,2.768a75.771,75.771,0,0,1,11,4.3,42.493,42.493,0,0,1,5.388,3.141,21.816,21.816,0,0,1,4.728,4.364,11.693,11.693,0,0,1,1.614,2.883,5.35,5.35,0,0,1,.268.793l.185.821a6.309,6.309,0,0,1,.092.84,5.206,5.206,0,0,1,.028.849,8.638,8.638,0,0,1-.8,3.3,12.139,12.139,0,0,1-1.868,2.888,24.094,24.094,0,0,1-5.328,4.5,47.762,47.762,0,0,1-6.3,3.367,91.684,91.684,0,0,1-13.912,4.783,178.556,178.556,0,0,1-30.508,4.977,246.2,246.2,0,0,1-30.91.544,208.845,208.845,0,0,1-28.617-3.169A109.244,109.244,0,0,1,95.43,224.72a36.042,36.042,0,0,1-9.927-6.356,13.5,13.5,0,0,1-3.229-4.534,8.232,8.232,0,0,1-.378-5.277,11.274,11.274,0,0,1,2.436-4.451,21.1,21.1,0,0,1,3.561-3.261,35.529,35.529,0,0,1,3.842-2.454c1.282-.724,2.569-1.356,3.824-1.928a88.743,88.743,0,0,1,13.345-4.677c3.75-1.01,6.7-1.638,8.709-2.039S120.675,189.175,120.675,189.175Z" transform="translate(-81.627 -185.806)"/><g transform="translate(22.248 71.438)"><path class="d" d="M162.832,342.219c-.157.023-.84.134-2.3.364-1.508.24-3.727.623-6.559,1.245a83.364,83.364,0,0,0-10.162,2.864,47.613,47.613,0,0,0-6.043,2.625,26.916,26.916,0,0,0-3.067,1.873,15.839,15.839,0,0,0-2.818,2.509,9.115,9.115,0,0,0-1.112,1.605,6.286,6.286,0,0,0-.687,1.863c-.028.166-.065.332-.083.5l-.028.507c0,.337.042.678.074,1.019.092.332.138.678.263,1l.194.484.1.244.129.231a11.365,11.365,0,0,0,2.772,3.261,22.754,22.754,0,0,0,3.718,2.5,49.4,49.4,0,0,0,8.695,3.63,90.225,90.225,0,0,0,9.7,2.477,145.03,145.03,0,0,0,21.334,2.551,173.24,173.24,0,0,0,23.073-.4,122.879,122.879,0,0,0,22.727-3.916,57.457,57.457,0,0,0,10.24-3.9,25.573,25.573,0,0,0,4.456-2.878c.351-.263.646-.586.973-.872s.586-.637.881-.95a8.369,8.369,0,0,0,1.31-2.191,5.864,5.864,0,0,0-.2-4.862,11.7,11.7,0,0,0-3.178-3.7,32.373,32.373,0,0,0-8.243-4.511,69.949,69.949,0,0,0-8.391-2.689c-2.74-.706-5.4-1.264-7.952-1.711a157.708,157.708,0,0,0-24.434-2.237c-5.747-.032-8.681-.046-9.009-.051,0,0,3.206-.042,9.009,0a155.75,155.75,0,0,1,24.452,2.191c2.555.447,5.217,1,7.962,1.707a69.094,69.094,0,0,1,8.409,2.685,32.508,32.508,0,0,1,8.28,4.525,11.832,11.832,0,0,1,3.215,3.741,6.021,6.021,0,0,1,.212,4.968,8.629,8.629,0,0,1-1.333,2.228c-.3.318-.572.664-.89.964s-.627.618-.983.881a25.578,25.578,0,0,1-4.479,2.9,57.5,57.5,0,0,1-10.263,3.916,122.819,122.819,0,0,1-22.75,3.925,173.51,173.51,0,0,1-23.091.4,144.767,144.767,0,0,1-21.357-2.56,91.608,91.608,0,0,1-9.71-2.486,49,49,0,0,1-8.718-3.649,22.645,22.645,0,0,1-3.732-2.509,11.479,11.479,0,0,1-2.8-3.3l-.129-.231-.1-.249-.2-.494c-.125-.327-.175-.683-.268-1.019-.032-.346-.069-.7-.074-1.042l.032-.517c.018-.171.055-.337.083-.507a6.46,6.46,0,0,1,.7-1.9,9.3,9.3,0,0,1,1.125-1.619,16.04,16.04,0,0,1,2.841-2.523,26.485,26.485,0,0,1,3.081-1.877,47.347,47.347,0,0,1,6.057-2.62,83.506,83.506,0,0,1,10.176-2.846c2.837-.613,5.06-.983,6.568-1.218S162.832,342.219,162.832,342.219Z" transform="translate(-129.86 -340.677)"/></g><g transform="translate(37.992 102.897)"><path class="d" d="M241.451,421.144a4.765,4.765,0,0,0-.383-1.679,8.819,8.819,0,0,0-3.377-3.561c-3.626-2.385-9.682-4.391-17.311-5.614a105.1,105.1,0,0,0-12.583-1.232,121.077,121.077,0,0,0-14.512.268c-2.551.2-5.152.494-7.8.918a74.661,74.661,0,0,0-8.008,1.688c-1.342.36-2.685.78-4.008,1.268a32.561,32.561,0,0,0-3.916,1.707,15.816,15.816,0,0,0-3.547,2.454,4.7,4.7,0,0,0,0,7.569,15.839,15.839,0,0,0,3.547,2.459,31.55,31.55,0,0,0,3.916,1.707c1.328.489,2.666.9,4.013,1.268a73.847,73.847,0,0,0,8.012,1.688c2.643.42,5.249.715,7.8.918a121.062,121.062,0,0,0,14.512.268,105.958,105.958,0,0,0,12.583-1.232c7.629-1.227,13.686-3.229,17.312-5.614a8.818,8.818,0,0,0,3.376-3.561,4.914,4.914,0,0,0,.374-1.688c0,.069-.014.185-.032.443a2.28,2.28,0,0,1-.1.535,3.392,3.392,0,0,1-.24.71,8.771,8.771,0,0,1-3.372,3.584c-3.626,2.4-9.687,4.414-17.321,5.651a105.029,105.029,0,0,1-12.593,1.245,121.116,121.116,0,0,1-14.521-.258c-2.551-.2-5.162-.494-7.8-.913a75.106,75.106,0,0,1-8.021-1.688c-1.347-.364-2.689-.78-4.018-1.268a32.719,32.719,0,0,1-3.925-1.711,15.885,15.885,0,0,1-3.57-2.472,6.961,6.961,0,0,1-1.361-1.725,4.138,4.138,0,0,1,0-4.253,6.961,6.961,0,0,1,1.361-1.725,15.885,15.885,0,0,1,3.57-2.472,32.715,32.715,0,0,1,3.925-1.711c1.328-.489,2.671-.909,4.018-1.269a74.868,74.868,0,0,1,8.021-1.688c2.648-.42,5.254-.715,7.8-.913a121.136,121.136,0,0,1,14.521-.258,105.04,105.04,0,0,1,12.593,1.245c7.629,1.236,13.7,3.247,17.321,5.651a8.821,8.821,0,0,1,3.377,3.584,3.482,3.482,0,0,1,.24.71,2.546,2.546,0,0,1,.1.535C241.437,420.955,241.447,421.075,241.451,421.144Z" transform="translate(-163.99 -408.878)"/></g><g transform="translate(10.597 42.148)"><path class="d" d="M107.543,278.651a1.471,1.471,0,1,1-1.471-1.471A1.473,1.473,0,0,1,107.543,278.651Z" transform="translate(-104.6 -277.18)"/></g><g transform="translate(143.779 43.145)"><circle class="d" cx="1.471" cy="1.471" r="1.471"/></g><g transform="translate(83.717 97.409)"><path class="d" d="M266.063,398.451a1.471,1.471,0,1,1-1.471-1.471A1.473,1.473,0,0,1,266.063,398.451Z" transform="translate(-263.12 -396.98)"/></g><g transform="translate(40.464 60.299)"><path class="d" d="M170.826,317.268a.738.738,0,1,1-.738-.738A.737.737,0,0,1,170.826,317.268Z" transform="translate(-169.35 -316.53)"/></g><g transform="translate(132.031 78.141)"><path class="d" d="M369.336,355.948a.738.738,0,1,1-.738-.738A.737.737,0,0,1,369.336,355.948Z" transform="translate(-367.86 -355.21)"/></g><g transform="translate(73.902 112.197)"><path class="d" d="M243.316,429.778a.738.738,0,1,1-.738-.738A.737.737,0,0,1,243.316,429.778Z" transform="translate(-241.84 -429.04)"/></g></g><g transform="translate(36.575)"><circle class="d" cx="0.369" cy="0.369" r="0.369"/></g></g><g transform="translate(51.601 71.446)"><g transform="translate(52.299 28.534)"><path class="d" d="M240.124,232.913c-17.883,4.733-35.121,4.377-53.909,0l-2.2-34.342a133.831,133.831,0,0,0,56.1-.812Z" transform="translate(-184.02 -197.76)"/><g class="e"><path class="f" d="M240.124,232.913c-17.883,4.733-35.121,4.377-53.909,0l-2.2-34.342a133.831,133.831,0,0,0,56.1-.812Z" transform="translate(-184.02 -197.76)"/></g><g transform="translate(5.738 29.931)"><path class="d" d="M244.054,262.649a.482.482,0,0,1-.111.055c-.088.037-.2.083-.337.143-.3.12-.733.314-1.31.517a50.5,50.5,0,0,1-4.949,1.555,64.675,64.675,0,0,1-16.966,1.937,99.109,99.109,0,0,1-17-1.817c-2.15-.41-3.884-.784-5.074-1.061-.6-.134-1.056-.254-1.37-.327l-.355-.092a.5.5,0,0,1-.12-.042.431.431,0,0,1,.125.014l.36.069c.332.069.793.166,1.379.286,1.2.249,2.934.6,5.083.987a104.32,104.32,0,0,0,16.975,1.748,66.89,66.89,0,0,0,16.924-1.859c2.117-.53,3.806-1.07,4.959-1.476.581-.194,1.019-.374,1.324-.475.143-.051.254-.088.346-.12C244.008,262.653,244.049,262.644,244.054,262.649Z" transform="translate(-196.46 -262.648)"/></g><g transform="translate(20.167 18.529)"><path class="d" d="M234.627,250.73a11.727,11.727,0,0,1-6.887-.231V238.276a17.308,17.308,0,0,1,6.887,0Z" transform="translate(-227.74 -237.93)"/></g><g transform="translate(30.67 11.91)"><path class="d" d="M258.01,242.275a.373.373,0,0,1-.009-.092c0-.074,0-.157-.009-.268,0-.249-.014-.59-.028-1.019-.018-.9-.042-2.186-.074-3.8-.051-3.243-.115-7.782-.2-13.045l.092.111a18.423,18.423,0,0,0-7.127,0l.1-.12c0,.078,0,.162,0,.244.074,7.224.138,13.751.185,18.409l-.065-.083a16.06,16.06,0,0,0,3,.364,10.989,10.989,0,0,0,2.265-.185,11.281,11.281,0,0,0,1.388-.364c.143-.051.258-.088.351-.12a.388.388,0,0,1,.124-.041.853.853,0,0,1-.111.055c-.092.037-.208.088-.351.148a9.756,9.756,0,0,1-1.388.411,10.908,10.908,0,0,1-2.288.226,15.755,15.755,0,0,1-3.035-.332l-.065-.014V242.7c-.065-4.659-.157-11.181-.258-18.4,0-.083,0-.166,0-.244v-.1l.1-.018a18.619,18.619,0,0,1,7.219,0l.092.018v.092c.042,5.286.074,9.848.1,13.1,0,1.6.009,2.878.009,3.778,0,.424,0,.757,0,1,0,.1,0,.185,0,.254S258.015,242.275,258.01,242.275Z" transform="translate(-250.51 -223.58)"/></g><g transform="translate(41.865 9.545)"><path class="d" d="M281.667,238.074c-1.845,1-4.271,1.13-6.887.978v-20.19a14.724,14.724,0,0,1,6.887,0Z" transform="translate(-274.78 -218.453)"/></g><g transform="translate(9.313 22.158)"><path class="d" d="M211.018,253.972a4.954,4.954,0,0,1-.023-.517q-.007-.533-.028-1.412c-.014-1.227-.032-2.929-.055-4.959l.069.1a15.4,15.4,0,0,0-6.628-1.1h-.014l.111-.12c0,2.519-.014,4.88-.018,6.887l-.065-.1a12.585,12.585,0,0,0,2.657.757c.816.148,1.531.231,2.126.291.572.051,1.033.088,1.379.115a4.7,4.7,0,0,1,.489.06,3.693,3.693,0,0,1-.489.009c-.318,0-.789-.018-1.384-.06s-1.319-.111-2.145-.245a12.844,12.844,0,0,1-2.708-.733l-.065-.028v-.069c0-2.007-.009-4.368-.018-6.887v-.111l.111-.009h.014a15.294,15.294,0,0,1,6.725,1.144l.069.028v.074c-.023,2.057-.042,3.778-.055,5.023-.009.577-.018,1.038-.028,1.388A2.984,2.984,0,0,1,211.018,253.972Z" transform="translate(-204.21 -245.796)"/></g><g transform="translate(7.998 9.135)"><g transform="translate(2.196 2.781)"><path class="d" d="M215.29,224.146a6.863,6.863,0,0,1-1.347.083c-.835.014-1.983,0-3.252-.078s-2.417-.194-3.243-.3a6.818,6.818,0,0,1-1.328-.24,8.787,8.787,0,0,1,1.347.069c.83.069,1.97.157,3.238.235s2.412.12,3.243.148A8.935,8.935,0,0,1,215.29,224.146Z" transform="translate(-206.12 -223.594)"/></g><g transform="translate(2.302 4.196)"><path class="d" d="M214.385,227.3a5.931,5.931,0,0,1-1.181,0c-.729-.032-1.734-.1-2.846-.185s-2.117-.175-2.841-.254a5.85,5.85,0,0,1-1.167-.175,6.011,6.011,0,0,1,1.185,0c.729.032,1.734.1,2.841.185s2.113.175,2.837.254A6.027,6.027,0,0,1,214.385,227.3Z" transform="translate(-206.35 -226.662)"/></g><path class="d" d="M214.216,224.371s0-.152,0-.429c.014-.3.028-.692.046-1.19.051-1.042.12-2.509.2-4.313l.088.092a99.388,99.388,0,0,1-12.745-.706c-.12.1.161-.138.134-.111h0v.046l0,.051,0,.1-.009.194-.023.387c-.014.258-.032.512-.046.77-.028.507-.06,1.015-.088,1.508-.06.992-.115,1.951-.171,2.869l-.1-.12c3.686.452,6.868.646,9.129.733l2.643.078c.286.009.517.018.7.023a2.477,2.477,0,0,1,.249.018,1.6,1.6,0,0,1-.235.018c-.157,0-.406.018-.715.018-.613.009-1.513.009-2.648-.014-2.26-.046-5.452-.212-9.152-.65l-.106-.014,0-.106c.051-.918.106-1.877.161-2.869.028-.494.055-1,.088-1.508.014-.254.028-.512.046-.77l.023-.387.009-.194,0-.1,0-.051V217.7h0c-.028.023.254-.212.134-.111a108.86,108.86,0,0,0,12.713.77h.092l0,.092c-.125,1.822-.226,3.3-.3,4.354-.037.489-.069.881-.088,1.167A1.774,1.774,0,0,1,214.216,224.371Z" transform="translate(-201.36 -217.565)"/></g><g transform="translate(20.851 15.936)"><path class="d" d="M230.8,234.9a5.363,5.363,0,0,1-.886-1.232,4.336,4.336,0,0,1-.683-1.361,5.364,5.364,0,0,1,.886,1.232A4.462,4.462,0,0,1,230.8,234.9Z" transform="translate(-229.223 -232.307)"/></g></g><g transform="translate(0 2.343)"><path class="d" d="M70.64,140.98l5.844,35.366s8.921,16.707,32.635,20.476l-3.829-31.569S83.366,158.471,70.64,140.98Z" transform="translate(-70.64 -140.98)"/><g class="e"><path class="f" d="M70.64,140.98l5.844,35.366s8.921,16.707,32.635,20.476l-3.829-31.569S83.366,158.471,70.64,140.98Z" transform="translate(-70.64 -140.98)"/></g><g transform="translate(3.052 9.553)"><path class="d" d="M109.625,205.46a.815.815,0,0,1-.152-.037c-.111-.032-.254-.074-.438-.125l-1.67-.507c-.724-.231-1.624-.47-2.62-.876-.5-.194-1.042-.4-1.614-.614s-1.176-.443-1.79-.738c-1.236-.567-2.606-1.144-4-1.928-1.425-.72-2.874-1.624-4.391-2.592a43.962,43.962,0,0,1-8.81-7.634,26.125,26.125,0,0,1-3.178-4.433l-.009-.014,0-.018c-1.066-6.891-2-12.948-2.675-17.3-.323-2.159-.586-3.893-.766-5.1-.083-.586-.148-1.047-.194-1.375-.018-.148-.032-.263-.046-.355a.5.5,0,0,1-.009-.125.453.453,0,0,1,.028.12c.018.092.037.208.065.355q.083.491.235,1.37c.2,1.209.484,2.938.835,5.092.692,4.345,1.661,10.4,2.758,17.284l-.009-.037a25.994,25.994,0,0,0,3.15,4.382,44.374,44.374,0,0,0,8.75,7.606c1.5.964,2.943,1.877,4.359,2.6,1.384.789,2.749,1.375,3.972,1.951.609.3,1.209.53,1.781.752s1.1.434,1.605.632c.992.42,1.887.669,2.6.913s1.264.42,1.656.554c.18.06.318.111.429.148A.477.477,0,0,1,109.625,205.46Z" transform="translate(-77.256 -161.69)"/></g><g transform="translate(5.114 17.376)"><path class="d" d="M109.948,204.329a.358.358,0,0,1-.083.074c-.065.051-.148.12-.249.2-.235.184-.563.438-.987.766-.876.673-2.14,1.637-3.722,2.851l-.06.046-.042-.06c-1.255-1.734-2.8-3.87-4.553-6.3l.138.023c-1.1.78-2.269,1.614-3.492,2.486l-.115.083-.051-.134c-1.361-3.695-2.892-7.842-4.5-12.21-.217-.59-.434-1.176-.646-1.757l.221.014c-.978,1.942-1.933,3.833-2.846,5.646l-.125.244-.088-.258c-2.472-7.131-4.576-13.192-5.941-17.127l.125-.009c-.374,1.573-.669,2.818-.872,3.686-.1.415-.18.738-.24.969-.028.1-.046.184-.065.249s-.023.083-.028.083,0-.028.009-.088.028-.148.051-.254c.051-.235.12-.563.208-.978.189-.867.466-2.117.812-3.7l.051-.226.078.217c1.384,3.925,3.524,9.973,6.033,17.095l-.212-.014c.913-1.813,1.859-3.7,2.837-5.651l.125-.249.1.258c.212.581.429,1.167.646,1.757,1.605,4.368,3.123,8.52,4.484,12.219l-.166-.051,3.5-2.472.083-.06.06.083c1.739,2.44,3.27,4.59,4.511,6.333l-.1-.014,3.764-2.8c.429-.314.766-.563,1.01-.738.106-.078.194-.138.263-.185C109.916,204.347,109.948,204.329,109.948,204.329Z" transform="translate(-81.726 -178.65)"/></g><g transform="translate(20.78 20.793)"><path class="d" d="M127.429,191.358a2.159,2.159,0,0,1-.5-.111c-.318-.083-.77-.226-1.324-.406-1.112-.369-2.629-.936-4.258-1.67a45.7,45.7,0,0,1-4.068-2.09c-.507-.3-.909-.544-1.181-.724a2.09,2.09,0,0,1-.411-.3,2.1,2.1,0,0,1,.461.221c.332.18.738.4,1.218.655,1.029.553,2.463,1.287,4.087,2.02s3.123,1.324,4.216,1.73c.507.189.941.346,1.3.48A1.76,1.76,0,0,1,127.429,191.358Z" transform="translate(-115.689 -186.057)"/></g><g transform="translate(26.029 24.896)"><path class="d" d="M134.5,197.617a4.741,4.741,0,0,1-1.144-.2,26.1,26.1,0,0,1-2.685-.8,25.268,25.268,0,0,1-2.588-1.084,4.555,4.555,0,0,1-1.015-.572,6.65,6.65,0,0,1,1.084.415c.66.272,1.573.646,2.6,1.01s1.965.66,2.652.867A6.531,6.531,0,0,1,134.5,197.617Z" transform="translate(-127.069 -194.952)"/></g><g transform="translate(23.326 40.112)"><path class="d" d="M122,228.47c0,.291-.18.53-.4.53s-.4-.235-.4-.53.18-.53.4-.53S122,228.18,122,228.47Z" transform="translate(-121.21 -227.94)"/></g><g transform="translate(14.65 28.931)"><ellipse class="d" cx="0.397" cy="0.53" rx="0.397" ry="0.53"/></g><g transform="translate(5.89 17.265)"><path class="d" d="M84.2,178.94c0,.291-.18.53-.4.53s-.4-.235-.4-.53.18-.53.4-.53S84.2,178.65,84.2,178.94Z" transform="translate(-83.41 -178.41)"/></g></g><g transform="translate(119.644)"><g transform="translate(0 8.644)"><path class="d" d="M365.054,154.64l-2.929,35.933s-8.552,15.365-32.1,15.951l2.911-36.177S353.48,169.511,365.054,154.64Z" transform="translate(-330.02 -154.64)"/></g><g transform="translate(22.307)"><path class="d" d="M390.673,142.671c-.766-2.486-2.629-6.033-7.057-6.771l-5.235,48.332s9.83-1.96,10.093-7.348c.023-.466,1.988-24.489,2.482-30.435A9.739,9.739,0,0,0,390.673,142.671Z" transform="translate(-378.38 -135.9)"/></g><g class="e" transform="translate(0 8.644)"><path class="f" d="M365.054,154.64l-2.929,35.933s-8.552,15.365-32.1,15.951l2.911-36.177S353.48,169.511,365.054,154.64Z" transform="translate(-330.02 -154.64)"/></g><g transform="translate(6.056 17.805)"><path class="d" d="M371.426,174.5a21.324,21.324,0,0,0-3.755,11.619,9.722,9.722,0,0,1-.406,3.529,2.552,2.552,0,0,1-2.786,1.707c-1.2-.328-1.739-1.748-2.791-2.412a3.126,3.126,0,0,0-3.16.065,5.319,5.319,0,0,0-2.076,2.523c-.858,1.97-.913,4.193-1.545,6.246s-2.177,4.124-4.322,4.216c-.784.032-1.559-.2-2.343-.18a4.824,4.824,0,0,0-3.87,2.749,14.07,14.07,0,0,0-1.222,4.793s12.556,1.195,26.648-15.448Z" transform="translate(-343.15 -174.5)"/></g><g transform="translate(13.386 38.793)"><path class="d" d="M360.027,220.807c0,.447-.221.807-.494.807s-.494-.36-.494-.807.221-.807.494-.807S360.027,220.364,360.027,220.807Z" transform="translate(-359.04 -220)"/></g><g transform="translate(19.3 23.857)"><path class="d" d="M372.847,188.427c0,.447-.221.807-.494.807s-.494-.36-.494-.807.221-.807.494-.807S372.847,187.98,372.847,188.427Z" transform="translate(-371.86 -187.62)"/></g><g transform="translate(6.592 19.539)"><path class="d" d="M371.77,178.26a.991.991,0,0,1-.083.2c-.069.148-.157.341-.268.581-.249.526-.6,1.264-1.033,2.2-.913,1.9-2.2,4.585-3.746,7.8l-.051.106-.1-.065c-2.611-1.651-5.646-3.57-8.88-5.618l.175-.055c-.115.286-.244.6-.369.909-2.2,5.378-4.207,10.3-5.734,14.041l-.037.1-.088-.051c-2.214-1.245-4.022-2.246-5.277-2.929-.627-.341-1.116-.6-1.453-.77-.157-.078-.286-.138-.383-.189a.529.529,0,0,1-.134-.06,10.984,10.984,0,0,1,2.02.932c1.273.655,3.091,1.633,5.318,2.86l-.129.046c1.513-3.746,3.506-8.677,5.683-14.064.124-.309.254-.623.369-.909l.055-.134.12.078c3.233,2.057,6.259,3.985,8.866,5.646l-.152.042c1.573-3.2,2.892-5.867,3.824-7.759.461-.923.826-1.651,1.089-2.168.125-.235.221-.424.3-.567A.906.906,0,0,1,371.77,178.26Z" transform="translate(-344.31 -178.26)"/></g></g></g></g></svg>